<svg width="16" height="16" viewBox="0 0 16 16" fill="none" xmlns="http://www.w3.org/2000/svg">
<mask id="mask0_522_617" style="mask-type:alpha" maskUnits="userSpaceOnUse" x="0" y="0" width="16" height="16">
<rect width="16" height="16" fill="#D9D9D9"/>
</mask>
<g mask="url(#mask0_522_617)">
<path d="M3.06567 13.6413C2.85379 13.6883 2.67134 13.6353 2.51834 13.4823C2.36534 13.3293 2.31234 13.1468 2.35934 12.9349L2.91701 10.2579L5.74267 13.0836L3.06567 13.6413ZM5.74267 13.0836L2.91701 10.2579L10.3965 2.77843C10.6264 2.54854 10.911 2.43359 11.2503 2.43359C11.5897 2.43359 11.8743 2.54854 12.1042 2.77843L13.2222 3.89643C13.4521 4.12632 13.567 4.41093 13.567 4.75026C13.567 5.08959 13.4521 5.3742 13.2222 5.60409L5.74267 13.0836ZM11.1093 3.48109L4.29267 10.2913L5.70934 11.7079L12.5195 4.89126C12.558 4.85282 12.5772 4.80476 12.5772 4.74709C12.5772 4.68932 12.558 4.64121 12.5195 4.60276L11.3978 3.48109C11.3594 3.44265 11.3113 3.42343 11.2535 3.42343C11.1958 3.42343 11.1478 3.44265 11.1093 3.48109Z" fill="black"/>
</g>
</svg>
