<svg width="40" height="40" viewBox="0 0 40 40" fill="none" xmlns="http://www.w3.org/2000/svg">
<g clip-path="url(#clip0_522_1837)">
<path fill-rule="evenodd" clip-rule="evenodd" d="M12.0117 8.13199C12.9492 7.19425 14.2208 6.66728 15.5467 6.66699H21.6667C22.1088 6.66699 22.5327 6.84259 22.8453 7.15515C23.1578 7.46771 23.3334 7.89163 23.3334 8.33366C23.3334 8.77569 23.1578 9.19961 22.8453 9.51217C22.5327 9.82473 22.1088 10.0003 21.6667 10.0003H15.5467C15.1048 10.0004 14.6809 10.1761 14.3684 10.4887L12.9884 11.8687C12.051 12.8064 10.7794 13.3334 9.45341 13.3337H6.66675C6.22472 13.3337 5.8008 13.5093 5.48824 13.8218C5.17568 14.1344 5.00008 14.5583 5.00008 15.0003V31.667C5.00008 32.109 5.17568 32.5329 5.48824 32.8455C5.8008 33.1581 6.22472 33.3337 6.66675 33.3337H30.0001C30.4421 33.3337 30.866 33.1581 31.1786 32.8455C31.4912 32.5329 31.6667 32.109 31.6667 31.667V20.0003C31.6667 19.5583 31.8423 19.1344 32.1549 18.8218C32.4675 18.5093 32.8914 18.3337 33.3334 18.3337C33.7754 18.3337 34.1994 18.5093 34.5119 18.8218C34.8245 19.1344 35.0001 19.5583 35.0001 20.0003V31.667C35.0001 32.9931 34.4733 34.2648 33.5356 35.2025C32.5979 36.1402 31.3262 36.667 30.0001 36.667H6.66675C5.34067 36.667 4.0689 36.1402 3.13121 35.2025C2.19353 34.2648 1.66675 32.9931 1.66675 31.667V15.0003C1.66675 13.6742 2.19353 12.4025 3.13121 11.4648C4.0689 10.5271 5.34067 10.0003 6.66675 10.0003H9.45341C9.89541 10.0002 10.3193 9.82457 10.6317 9.51199L12.0117 8.13199Z" fill="#9E9E9E"/>
<path fill-rule="evenodd" clip-rule="evenodd" d="M10 23.3337C10 21.1235 10.878 19.0039 12.4408 17.4411C14.0036 15.8783 16.1232 15.0003 18.3333 15.0003C20.5435 15.0003 22.6631 15.8783 24.2259 17.4411C25.7887 19.0039 26.6667 21.1235 26.6667 23.3337C26.6667 25.5438 25.7887 27.6634 24.2259 29.2262C22.6631 30.789 20.5435 31.667 18.3333 31.667C16.1232 31.667 14.0036 30.789 12.4408 29.2262C10.878 27.6634 10 25.5438 10 23.3337ZM18.3333 18.3337C17.6767 18.3337 17.0265 18.463 16.4199 18.7143C15.8133 18.9655 15.2621 19.3338 14.7978 19.7981C14.3335 20.2624 13.9652 20.8136 13.7139 21.4202C13.4627 22.0269 13.3333 22.677 13.3333 23.3337C13.3333 23.9903 13.4627 24.6404 13.7139 25.2471C13.9652 25.8537 14.3335 26.4049 14.7978 26.8692C15.2621 27.3335 15.8133 27.7018 16.4199 27.9531C17.0265 28.2043 17.6767 28.3337 18.3333 28.3337C19.6594 28.3337 20.9312 27.8069 21.8689 26.8692C22.8065 25.9315 23.3333 24.6597 23.3333 23.3337C23.3333 22.0076 22.8065 20.7358 21.8689 19.7981C20.9312 18.8604 19.6594 18.3337 18.3333 18.3337ZM26.6667 8.33366C26.6667 7.89163 26.8423 7.46771 27.1548 7.15515C27.4674 6.84259 27.8913 6.66699 28.3333 6.66699H38.3333C38.7754 6.66699 39.1993 6.84259 39.5118 7.15515C39.8244 7.46771 40 7.89163 40 8.33366C40 8.77569 39.8244 9.19961 39.5118 9.51217C39.1993 9.82473 38.7754 10.0003 38.3333 10.0003H28.3333C27.8913 10.0003 27.4674 9.82473 27.1548 9.51217C26.8423 9.19961 26.6667 8.77569 26.6667 8.33366Z" fill="#9E9E9E"/>
<path fill-rule="evenodd" clip-rule="evenodd" d="M33.3334 1.66699C33.7754 1.66699 34.1994 1.84259 34.5119 2.15515C34.8245 2.46771 35.0001 2.89163 35.0001 3.33366V13.3337C35.0001 13.7757 34.8245 14.1996 34.5119 14.5122C34.1994 14.8247 33.7754 15.0003 33.3334 15.0003C32.8914 15.0003 32.4675 14.8247 32.1549 14.5122C31.8423 14.1996 31.6667 13.7757 31.6667 13.3337V3.33366C31.6667 2.89163 31.8423 2.46771 32.1549 2.15515C32.4675 1.84259 32.8914 1.66699 33.3334 1.66699Z" fill="#9E9E9E"/>
</g>
<defs>
<clipPath id="clip0_522_1837">
<rect width="40" height="40" fill="white"/>
</clipPath>
</defs>
</svg>
