<svg width="32" height="32" viewBox="0 0 32 32" fill="none" xmlns="http://www.w3.org/2000/svg">
<circle cx="16" cy="16" r="16" fill="white"/>
<mask id="mask0_289_128" style="mask-type:alpha" maskUnits="userSpaceOnUse" x="6" y="6" width="20" height="20">
<rect x="6" y="6" width="20" height="20" fill="#D9D9D9"/>
</mask>
<g mask="url(#mask0_289_128)">
<path d="M9.75 21.7368V20.487H11.2565V14.2688C11.2565 13.1481 11.6024 12.1572 12.2942 11.2961C12.9858 10.435 13.8739 9.88426 14.9583 9.64384V9.12467C14.9583 8.83537 15.0595 8.5894 15.2619 8.38676C15.4642 8.18426 15.7099 8.08301 15.999 8.08301C16.2881 8.08301 16.5342 8.18426 16.7371 8.38676C16.9401 8.5894 17.0417 8.83537 17.0417 9.12467V9.64384C18.1261 9.88426 19.0142 10.435 19.7058 11.2961C20.3976 12.1572 20.7435 13.1481 20.7435 14.2688V20.487H22.25V21.7368H9.75ZM15.9985 24.0766C15.584 24.0766 15.2295 23.9291 14.9352 23.6341C14.6408 23.3391 14.4935 22.9844 14.4935 22.5701H17.5065C17.5065 22.9858 17.3588 23.3408 17.0635 23.6351C16.7683 23.9294 16.4133 24.0766 15.9985 24.0766ZM12.5065 20.487H19.4935V14.2688C19.4935 13.3041 19.1525 12.4807 18.4704 11.7986C17.7882 11.1164 16.9647 10.7753 16 10.7753C15.0353 10.7753 14.2118 11.1164 13.5296 11.7986C12.8475 12.4807 12.5065 13.3041 12.5065 14.2688V20.487Z" fill="#2B2342"/>
</g>
</svg>
