<svg width="20" height="20" viewBox="0 0 20 20" fill="none" xmlns="http://www.w3.org/2000/svg">
<mask id="mask0_522_2311" style="mask-type:alpha" maskUnits="userSpaceOnUse" x="0" y="0" width="20" height="20">
<rect width="20" height="20" fill="#D9D9D9"/>
</mask>
<g mask="url(#mask0_522_2311)">
<path d="M17.0837 6.00893V15.5762C17.0837 15.9972 16.9378 16.3535 16.6462 16.6452C16.3545 16.9368 15.9982 17.0827 15.5772 17.0827H4.42345C4.00248 17.0827 3.64616 16.9368 3.35449 16.6452C3.06283 16.3535 2.91699 15.9972 2.91699 15.5762V4.42247C2.91699 4.0015 3.06283 3.64518 3.35449 3.35352C3.64616 3.06185 4.00248 2.91602 4.42345 2.91602H13.9907L17.0837 6.00893ZM15.8337 6.54102L13.4587 4.16602H4.42345C4.34859 4.16602 4.28713 4.19004 4.23908 4.2381C4.19102 4.28615 4.16699 4.34761 4.16699 4.42247V15.5762C4.16699 15.6511 4.19102 15.7125 4.23908 15.7606C4.28713 15.8087 4.34859 15.8327 4.42345 15.8327H15.5772C15.6521 15.8327 15.7135 15.8087 15.7616 15.7606C15.8096 15.7125 15.8337 15.6511 15.8337 15.5762V6.54102ZM10.0003 14.3904C10.5773 14.3904 11.0687 14.1874 11.4747 13.7814C11.8807 13.3755 12.0837 12.884 12.0837 12.3071C12.0837 11.7301 11.8807 11.2387 11.4747 10.8327C11.0687 10.4267 10.5773 10.2237 10.0003 10.2237C9.42338 10.2237 8.93192 10.4267 8.52595 10.8327C8.11998 11.2387 7.91699 11.7301 7.91699 12.3071C7.91699 12.884 8.11998 13.3755 8.52595 13.7814C8.93192 14.1874 9.42338 14.3904 10.0003 14.3904ZM5.32095 8.23643H12.1637V5.31997H5.32095V8.23643Z" fill="white"/>
</g>
</svg>
