<svg width="20" height="20" viewBox="0 0 20 20" fill="none" xmlns="http://www.w3.org/2000/svg">
<path d="M2.0846 16.7382H17.9124C18.7866 16.7382 19.497 16.028 19.497 15.1536V7.2416L11.6286 12.49C11.146 12.8121 10.5787 12.984 9.9985 12.984C9.41826 12.984 8.85102 12.8121 8.3684 12.49L0.5 7.2414V15.1536C0.5 16.028 1.2104 16.7382 2.0846 16.7382Z" fill="white"/>
<path d="M17.9124 3.2618H2.0846C1.2104 3.2618 0.5 3.972 0.5 4.8464V5.6174L9.1212 11.3638C9.38082 11.5389 9.68684 11.6325 10 11.6325C10.3132 11.6325 10.6192 11.5389 10.8788 11.3638L19.5 5.6174V4.8494C19.497 3.975 18.7866 3.2618 17.9124 3.2618Z" fill="white"/>
</svg>
