<svg width="24" height="24" viewBox="0 0 24 24" fill="none" xmlns="http://www.w3.org/2000/svg">
<path d="M12.1319 5.7296C16.1758 5.76928 18.7092 5.51767 19.0514 9.99996H23.9827C23.9827 3.05619 17.9268 2.12024 12.0035 2.12024C6.07971 2.12024 0.024274 3.05619 0.024274 9.99996H4.91736C5.29594 5.43224 8.12153 5.69039 12.1319 5.7296ZM2.46988 12.2322C3.67098 12.2322 4.67041 12.3041 4.89261 11.1226C4.92249 10.962 4.93976 10.78 4.93976 10.5695H0C0 12.327 1.10587 12.2322 2.46988 12.2322ZM19.0831 10.5695H19.0369C19.0369 10.7814 19.0551 10.9639 19.0892 11.1226C19.3235 12.2122 20.3216 12.1445 21.5184 12.1445C22.889 12.1445 24 12.2346 24 10.5695H19.0831Z" fill="white"/>
<path d="M16.6741 9.37257V8.67422C16.6741 8.36193 16.3142 8.34232 15.8698 8.34232H15.1439C14.7 8.34232 14.3401 8.36193 14.3401 8.67422V9.74275H9.20517V8.67422C9.20517 8.36193 8.84526 8.34232 8.40133 8.34232H7.67497C7.23104 8.34232 6.87113 8.36193 6.87113 8.67422V9.98222C5.70131 11.1978 1.87348 16.3724 1.73438 16.9988L1.73624 21.1791C1.73624 21.5651 2.0504 21.8793 2.43645 21.8793H21.1088C21.4948 21.8793 21.809 21.5651 21.809 21.1791V16.9778C21.6713 16.3696 17.8444 11.1973 16.6741 9.98175V9.37257ZM8.95216 17.5613C8.86131 17.5637 8.77091 17.5479 8.68628 17.5147C8.60165 17.4816 8.52452 17.4319 8.45942 17.3685C8.39432 17.305 8.34258 17.2292 8.30726 17.1455C8.27193 17.0618 8.25373 16.9718 8.25373 16.8809C8.25373 16.7901 8.27193 16.7001 8.30726 16.6164C8.34258 16.5326 8.39432 16.4568 8.45942 16.3934C8.52452 16.33 8.60165 16.2803 8.68628 16.2471C8.77091 16.214 8.86131 16.1982 8.95216 16.2006C9.12952 16.2052 9.29806 16.2789 9.42186 16.406C9.54566 16.5331 9.61494 16.7035 9.61494 16.8809C9.61494 17.0584 9.54566 17.2288 9.42186 17.3559C9.29806 17.4829 9.12952 17.5567 8.95216 17.5613ZM8.95216 15.2273C8.86131 15.2297 8.77091 15.2138 8.68628 15.1807C8.60165 15.1476 8.52452 15.0978 8.45942 15.0344C8.39432 14.971 8.34258 14.8952 8.30726 14.8115C8.27193 14.7277 8.25373 14.6378 8.25373 14.5469C8.25373 14.456 8.27193 14.3661 8.30726 14.2823C8.34258 14.1986 8.39432 14.1228 8.45942 14.0594C8.52452 13.996 8.60165 13.9462 8.68628 13.9131C8.77091 13.88 8.86131 13.8641 8.95216 13.8665C9.12952 13.8712 9.29806 13.9449 9.42186 14.072C9.54566 14.1991 9.61494 14.3695 9.61494 14.5469C9.61494 14.7243 9.54566 14.8947 9.42186 15.0218C9.29806 15.1489 9.12952 15.2226 8.95216 15.2273ZM8.95216 12.8937C8.86131 12.8961 8.77091 12.8802 8.68628 12.8471C8.60165 12.814 8.52452 12.7643 8.45942 12.7009C8.39432 12.6374 8.34258 12.5616 8.30726 12.4779C8.27193 12.3942 8.25373 12.3042 8.25373 12.2133C8.25373 12.1224 8.27193 12.0325 8.30726 11.9488C8.34258 11.865 8.39432 11.7892 8.45942 11.7258C8.52452 11.6624 8.60165 11.6127 8.68628 11.5795C8.77091 11.5464 8.86131 11.5306 8.95216 11.533C9.12952 11.5376 9.29806 11.6113 9.42186 11.7384C9.54566 11.8655 9.61494 12.0359 9.61494 12.2133C9.61494 12.3907 9.54566 12.5612 9.42186 12.6882C9.29806 12.8153 9.12952 12.8891 8.95216 12.8937ZM11.753 17.5613C11.6622 17.5637 11.5718 17.5479 11.4871 17.5147C11.4025 17.4816 11.3254 17.4319 11.2603 17.3685C11.1952 17.305 11.1434 17.2292 11.1081 17.1455C11.0728 17.0618 11.0546 16.9718 11.0546 16.8809C11.0546 16.7901 11.0728 16.7001 11.1081 16.6164C11.1434 16.5326 11.1952 16.4568 11.2603 16.3934C11.3254 16.33 11.4025 16.2803 11.4871 16.2471C11.5718 16.214 11.6622 16.1982 11.753 16.2006C11.9304 16.2052 12.0989 16.2789 12.2227 16.406C12.3465 16.5331 12.4158 16.7035 12.4158 16.8809C12.4158 17.0584 12.3465 17.2288 12.2227 17.3559C12.0989 17.4829 11.9304 17.5567 11.753 17.5613ZM11.753 15.2273C11.6622 15.2297 11.5718 15.2138 11.4871 15.1807C11.4025 15.1476 11.3254 15.0978 11.2603 15.0344C11.1952 14.971 11.1434 14.8952 11.1081 14.8115C11.0728 14.7277 11.0546 14.6378 11.0546 14.5469C11.0546 14.456 11.0728 14.3661 11.1081 14.2823C11.1434 14.1986 11.1952 14.1228 11.2603 14.0594C11.3254 13.996 11.4025 13.9462 11.4871 13.9131C11.5718 13.88 11.6622 13.8641 11.753 13.8665C11.9304 13.8712 12.0989 13.9449 12.2227 14.072C12.3465 14.1991 12.4158 14.3695 12.4158 14.5469C12.4158 14.7243 12.3465 14.8947 12.2227 15.0218C12.0989 15.1489 11.9304 15.2226 11.753 15.2273ZM11.753 12.8937C11.6622 12.8961 11.5718 12.8802 11.4871 12.8471C11.4025 12.814 11.3254 12.7643 11.2603 12.7009C11.1952 12.6374 11.1434 12.5616 11.1081 12.4779C11.0728 12.3942 11.0546 12.3042 11.0546 12.2133C11.0546 12.1224 11.0728 12.0325 11.1081 11.9488C11.1434 11.865 11.1952 11.7892 11.2603 11.7258C11.3254 11.6624 11.4025 11.6127 11.4871 11.5795C11.5718 11.5464 11.6622 11.5306 11.753 11.533C11.9304 11.5376 12.0989 11.6113 12.2227 11.7384C12.3465 11.8655 12.4158 12.0359 12.4158 12.2133C12.4158 12.3907 12.3465 12.5612 12.2227 12.6882C12.0989 12.8153 11.9304 12.8891 11.753 12.8937ZM14.5539 17.5613C14.3733 17.5613 14.2002 17.4896 14.0726 17.362C13.945 17.2343 13.8733 17.0612 13.8733 16.8807C13.8733 16.7002 13.945 16.5271 14.0726 16.3994C14.2002 16.2718 14.3733 16.2001 14.5539 16.2001C14.7344 16.2001 14.9075 16.2718 15.0351 16.3994C15.1628 16.5271 15.2345 16.7002 15.2345 16.8807C15.2345 17.0612 15.1628 17.2343 15.0351 17.362C14.9075 17.4896 14.7344 17.5613 14.5539 17.5613ZM14.5539 15.2273C14.3733 15.2273 14.2002 15.1556 14.0726 15.0279C13.945 14.9003 13.8733 14.7272 13.8733 14.5467C13.8733 14.3662 13.945 14.193 14.0726 14.0654C14.2002 13.9378 14.3733 13.8661 14.5539 13.8661C14.7344 13.8661 14.9075 13.9378 15.0351 14.0654C15.1628 14.193 15.2345 14.3662 15.2345 14.5467C15.2345 14.7272 15.1628 14.9003 15.0351 15.0279C14.9075 15.1556 14.7344 15.2273 14.5539 15.2273ZM14.5539 12.8937C14.3733 12.8937 14.2002 12.822 14.0726 12.6944C13.945 12.5667 13.8733 12.3936 13.8733 12.2131C13.8733 12.0326 13.945 11.8595 14.0726 11.7318C14.2002 11.6042 14.3733 11.5325 14.5539 11.5325C14.7344 11.5325 14.9075 11.6042 15.0351 11.7318C15.1628 11.8595 15.2345 12.0326 15.2345 12.2131C15.2345 12.3936 15.1628 12.5667 15.0351 12.6944C14.9075 12.822 14.7344 12.8937 14.5539 12.8937Z" fill="white"/>
</svg>
