<svg width="16" height="16" viewBox="0 0 16 16" fill="none" xmlns="http://www.w3.org/2000/svg">
<path d="M14.3537 7.68673L9.02041 13.0201C8.95015 13.0901 8.86065 13.1376 8.76331 13.1566C8.66596 13.1756 8.56517 13.1652 8.47375 13.1267C8.38254 13.0895 8.30458 13.0257 8.24992 12.9437C8.19527 12.8617 8.16641 12.7653 8.16708 12.6667V9.84673C7.14449 9.9081 6.15324 10.223 5.2827 10.763C4.41215 11.303 3.68968 12.0512 3.18041 12.9401L2.43375 14.2734C2.39079 14.3505 2.32793 14.4147 2.25171 14.4593C2.17549 14.5039 2.0887 14.5271 2.00041 14.5267H1.87375C1.75999 14.496 1.66048 14.4267 1.59234 14.3306C1.5242 14.2344 1.4917 14.1176 1.50041 14.0001V12.0001C1.50105 10.1863 2.18936 8.44031 3.42655 7.11405C4.66374 5.78778 6.35777 4.97994 8.16708 4.8534V2.00007C8.16641 1.90153 8.19527 1.80506 8.24992 1.72307C8.30458 1.64109 8.38254 1.57735 8.47375 1.54007C8.56517 1.50162 8.66596 1.49124 8.76331 1.51023C8.86065 1.52923 8.95015 1.57674 9.02041 1.64673L14.3537 6.98007C14.4474 7.07382 14.5 7.2009 14.5 7.3334C14.5 7.4659 14.4474 7.59298 14.3537 7.68673Z" fill="white"/>
</svg>
