<svg width="25" height="24" viewBox="0 0 25 24" fill="none" xmlns="http://www.w3.org/2000/svg">
<path d="M9.91906 13.248H7.54306C7.15906 13.248 7.03906 13.104 7.03906 12.744V9.83995C7.03906 9.45595 7.18306 9.33595 7.54306 9.33595H9.91906V7.22395C9.91906 6.26395 10.0871 5.35195 10.5671 4.51195C11.0711 3.64795 11.7911 3.07195 12.7031 2.73595C13.3031 2.51995 13.9031 2.42395 14.5511 2.42395H16.9031C17.2391 2.42395 17.3831 2.56795 17.3831 2.90395V5.63995C17.3831 5.97595 17.2391 6.11995 16.9031 6.11995C16.2551 6.11995 15.6071 6.11995 14.9591 6.14395C14.3111 6.14395 13.9751 6.45595 13.9751 7.12795C13.9511 7.84795 13.9751 8.54395 13.9751 9.28795H16.7591C17.1431 9.28795 17.2871 9.43195 17.2871 9.81595V12.72C17.2871 13.104 17.1671 13.224 16.7591 13.224H13.9751V21.048C13.9751 21.4559 13.8551 21.6 13.4231 21.6H10.4231C10.0631 21.6 9.91906 21.456 9.91906 21.096V13.248Z" fill="#353535"/>
</svg>
