<svg width="21" height="20" viewBox="0 0 21 20" fill="none" xmlns="http://www.w3.org/2000/svg">
<g clip-path="url(#clip0_238_420)">
<path d="M13.9727 0H6.47266C3.02141 0 0.222656 2.79875 0.222656 6.25V13.75C0.222656 17.2013 3.02141 20 6.47266 20H13.9727C17.4239 20 20.2227 17.2013 20.2227 13.75V6.25C20.2227 2.79875 17.4239 0 13.9727 0ZM18.3477 13.75C18.3477 16.1625 16.3852 18.125 13.9727 18.125H6.47266C4.06016 18.125 2.09766 16.1625 2.09766 13.75V6.25C2.09766 3.8375 4.06016 1.875 6.47266 1.875H13.9727C16.3852 1.875 18.3477 3.8375 18.3477 6.25V13.75Z" fill="#353535"/>
<path d="M10.2227 5C7.46141 5 5.22266 7.23875 5.22266 10C5.22266 12.7613 7.46141 15 10.2227 15C12.9839 15 15.2227 12.7613 15.2227 10C15.2227 7.23875 12.9839 5 10.2227 5ZM10.2227 13.125C8.50016 13.125 7.09766 11.7225 7.09766 10C7.09766 8.27625 8.50016 6.875 10.2227 6.875C11.9452 6.875 13.3477 8.27625 13.3477 10C13.3477 11.7225 11.9452 13.125 10.2227 13.125Z" fill="#353535"/>
<path d="M15.5979 5.29124C15.9659 5.29124 16.2641 4.99295 16.2641 4.62499C16.2641 4.25703 15.9659 3.95874 15.5979 3.95874C15.2299 3.95874 14.9316 4.25703 14.9316 4.62499C14.9316 4.99295 15.2299 5.29124 15.5979 5.29124Z" fill="#353535"/>
</g>
<defs>
<clipPath id="clip0_238_420">
<rect width="20" height="20" fill="white" transform="translate(0.222656)"/>
</clipPath>
</defs>
</svg>
