<svg width="48" height="48" viewBox="0 0 48 48" fill="none" xmlns="http://www.w3.org/2000/svg">
<g clip-path="url(#clip0_238_443)">
<path d="M24 48C37.2548 48 48 37.2548 48 24C48 10.7452 37.2548 0 24 0C10.7452 0 0 10.7452 0 24C0 37.2548 10.7452 48 24 48Z" fill="#29A71A"/>
<path d="M33.2456 14.8242C31.0638 12.638 28.1662 11.2973 25.0757 11.0439C21.9852 10.7904 18.9051 11.641 16.391 13.4422C13.877 15.2433 12.0944 17.8764 11.3649 20.8666C10.6355 23.8568 11.0071 27.0071 12.4127 29.7494L11.0329 36.3952C11.0186 36.4613 11.0182 36.5297 11.0317 36.596C11.0452 36.6623 11.0724 36.7251 11.1115 36.7806C11.1688 36.8647 11.2506 36.9294 11.346 36.9662C11.4414 37.0029 11.5458 37.0099 11.6453 36.9862L18.2107 35.4424C20.9672 36.8016 24.1203 37.1466 27.109 36.4159C30.0977 35.6852 32.7282 33.9262 34.5324 31.452C36.3366 28.9778 37.1975 25.9489 36.9618 22.9041C36.7262 19.8593 35.4094 16.9962 33.2456 14.8242ZM31.1986 31.0332C29.6889 32.5266 27.745 33.5125 25.6406 33.8518C23.5363 34.1911 21.3777 33.8668 19.469 32.9245L18.5539 32.4753L14.5289 33.421L14.5408 33.3714L15.3749 29.3522L14.9268 28.4751C13.9516 26.5749 13.6076 24.4173 13.944 22.3112C14.2805 20.2052 15.2802 18.2589 16.8 16.751C18.7095 14.8571 21.2991 13.7932 23.9993 13.7932C26.6994 13.7932 29.289 14.8571 31.1986 16.751C31.2148 16.7695 31.2323 16.7869 31.251 16.803C33.1369 18.7018 34.1897 21.2632 34.1799 23.9288C34.1701 26.5945 33.0984 29.1482 31.1986 31.0332Z" fill="white"/>
<path d="M30.8553 27.9988C30.3449 28.7391 29.5387 29.6452 28.5254 29.87C26.7502 30.2651 24.0259 29.8836 20.6358 26.9724L20.5939 26.9383C17.6131 24.3927 16.839 22.2739 17.0263 20.5935C17.1299 19.6397 17.9928 18.7768 18.7201 18.2136C18.8351 18.1232 18.9715 18.0589 19.1183 18.0257C19.2651 17.9925 19.4183 17.9915 19.5657 18.0226C19.713 18.0537 19.8504 18.1161 19.9669 18.2049C20.0834 18.2937 20.1757 18.4063 20.2364 18.5338L21.3336 20.8047C21.4048 20.9519 21.4313 21.1143 21.41 21.2743C21.3887 21.4343 21.3205 21.586 21.2127 21.713L20.658 22.3761C20.539 22.513 20.4672 22.6796 20.4518 22.8545C20.4364 23.0293 20.4782 23.2044 20.5717 23.3571C20.8824 23.859 21.6269 24.597 22.4529 25.2806C23.3799 26.0527 24.408 26.7589 25.0589 26.9996C25.2331 27.0652 25.4246 27.0812 25.6087 27.0455C25.7928 27.0099 25.9611 26.9243 26.092 26.7998L26.7355 26.2025C26.8596 26.0898 27.014 26.0093 27.1829 25.9695C27.3519 25.9296 27.5292 25.9316 27.697 25.9755L30.303 26.6567C30.4468 26.6973 30.5785 26.7677 30.6882 26.8624C30.798 26.9571 30.8827 27.0737 30.936 27.2032C30.9893 27.3327 31.0097 27.4717 30.9957 27.6096C30.9817 27.7475 30.9337 27.8806 30.8553 27.9988Z" fill="white"/>
</g>
<defs>
<clipPath id="clip0_238_443">
<rect width="48" height="48" fill="white"/>
</clipPath>
</defs>
</svg>
