<svg width="64" height="64" viewBox="0 0 64 64" fill="none" xmlns="http://www.w3.org/2000/svg">
<circle cx="32" cy="32" r="32" fill="#D9A60D"/>
<g clip-path="url(#clip0_238_561)">
<path d="M35.7521 32.9384C35.7521 35.5247 33.648 37.6288 31.0617 37.6288C28.4754 37.6288 26.3712 35.5247 26.3712 32.9384C26.3712 30.352 28.4754 28.2478 31.0617 28.2478C32.0165 28.2478 32.9051 28.5353 33.6469 29.0273L36.367 26.3072C36.3056 26.262 36.2436 26.2175 36.1812 26.1737C34.3365 24.8847 32.4887 24.2332 30.6811 24.2332C30.5155 24.2332 30.3504 24.2386 30.1855 24.2495C28.0045 24.398 25.9727 25.3689 24.4656 26.9833C22.9548 28.5992 22.123 30.7138 22.123 32.9384C22.123 35.3252 23.053 37.5697 24.7417 39.2583C26.4304 40.947 28.6749 41.877 31.0616 41.877C33.4484 41.877 35.6929 40.947 37.3815 39.2583C39.0702 37.5696 40.0001 35.3252 40.0001 32.9384C40.0001 30.9738 39.2067 29.0877 37.7744 27.5513L34.9725 30.3531C35.4647 31.0949 35.7521 31.9836 35.7521 32.9384Z" fill="white"/>
<path d="M30.3991 32.2754L32.2761 30.3984C31.8972 30.2165 31.4823 30.1223 31.062 30.1228C29.5096 30.1228 28.2466 31.3859 28.2466 32.9384C28.2466 34.4908 29.5096 35.7538 31.062 35.7538C32.6145 35.7538 33.8775 34.4908 33.8775 32.9384C33.8779 32.5181 33.7837 32.1031 33.6019 31.7242L31.725 33.6012L30.3991 32.2754Z" fill="white"/>
<path d="M40.2678 25.058L39.1013 26.2245C40.8852 28.1133 41.8753 30.4673 41.8753 32.9382C41.8753 35.8258 40.7503 38.5411 38.7075 40.5839C36.6646 42.6268 33.9493 43.7518 31.0618 43.7518C28.1742 43.7518 25.4589 42.6268 23.416 40.5839C21.3731 38.5411 20.2481 35.8258 20.2481 32.9382C20.2481 30.2365 21.2594 27.667 23.0956 25.7032C24.9277 23.7404 27.4013 22.5595 30.0599 22.3785C32.4631 22.2197 34.8831 22.9789 37.2553 24.6367C37.408 24.7437 37.5583 24.8542 37.7061 24.968L38.942 23.7322L39.1399 20.2202C36.7478 18.6942 33.9678 17.8765 31.0618 17.8765C27.0387 17.8765 23.2563 19.4432 20.4116 22.2879C17.5667 25.1327 16 28.915 16 32.9382C16 36.9613 17.5667 40.7437 20.4115 43.5884C23.2563 46.4332 27.0386 47.9999 31.0618 47.9999C35.0849 47.9999 38.8673 46.4332 41.712 43.5884C44.5568 40.7436 46.1234 36.9613 46.1234 32.9382C46.1234 30.0322 45.3056 27.2522 43.7797 24.86L40.2678 25.058Z" fill="white"/>
<path d="M40.853 23.1471L44.6842 22.9312L48.0002 19.6151L44.3851 16L41.069 19.316L40.853 23.1471Z" fill="white"/>
</g>
<defs>
<clipPath id="clip0_238_561">
<rect width="32" height="32" fill="white" transform="translate(16 16)"/>
</clipPath>
</defs>
</svg>
