<svg width="64" height="64" viewBox="0 0 64 64" fill="none" xmlns="http://www.w3.org/2000/svg">
<circle cx="32" cy="32" r="32" fill="#D9A60D"/>
<g clip-path="url(#clip0_238_572)">
<path d="M23.3124 32.0034C23.3124 27.8523 26.2391 24.3726 30.1373 23.5176C27.088 23.9058 23.8994 25.2278 20.8099 27.4C18.0251 29.3581 16.3054 31.2991 16.2336 31.3808C16.083 31.552 16 31.7721 16 32C16 32.2279 16.083 32.4481 16.2336 32.6192C16.3054 32.7009 18.0251 34.6419 20.81 36.6C23.8743 38.7545 27.0361 40.0726 30.0628 40.4729C26.2018 39.5902 23.3124 36.128 23.3124 32.0034Z" fill="white"/>
<path d="M25.1875 32.0034C25.1875 35.7599 28.2436 38.8159 32 38.8159C35.7564 38.8159 38.8125 35.7599 38.8125 32.0034C38.8125 28.247 35.7564 25.1909 32 25.1909C28.2436 25.1909 25.1875 28.247 25.1875 32.0034ZM33.25 29.1875H35.75C36.2677 29.1875 36.6875 29.6073 36.6875 30.125V32.625C36.6875 33.1428 36.2677 33.5625 35.75 33.5625C35.2323 33.5625 34.8125 33.1428 34.8125 32.625V32.3884L32.6629 34.538C32.2967 34.904 31.7033 34.9041 31.3371 34.538L30.1234 33.3244L28.9273 34.5204C28.5613 34.8865 27.9676 34.8866 27.6015 34.5204C27.2354 34.1544 27.2354 33.5608 27.6015 33.1946L29.4604 31.3356C29.8264 30.9695 30.4205 30.9697 30.7863 31.3356L32 32.5492L33.4867 31.0625H33.25C32.7323 31.0625 32.3125 30.6428 32.3125 30.125C32.3125 29.6073 32.7323 29.1875 33.25 29.1875Z" fill="white"/>
<path d="M47.7666 31.3808C47.6948 31.2991 45.9751 29.3581 43.1902 27.4001C40.1007 25.2278 36.9122 23.9059 33.8628 23.5176C37.761 24.3726 40.6877 27.8523 40.6877 32.0034C40.6877 36.1279 37.7983 39.5902 33.9374 40.4729C36.9641 40.0727 40.1259 38.7545 43.1902 36.5999C45.9751 34.6419 47.6947 32.7008 47.7666 32.6192C47.9171 32.448 48.0002 32.2279 48.0002 32C48.0002 31.7721 47.9171 31.552 47.7666 31.3808ZM39.3745 41.0228C39.1156 40.5744 38.5423 40.4207 38.0939 40.6797C37.6455 40.9386 37.4919 41.5119 37.7508 41.9603L38.7195 43.6383C38.9792 44.0881 39.5531 44.2396 40.0002 43.9814C40.4486 43.7225 40.6022 43.1492 40.3433 42.7008L39.3745 41.0228ZM32.0002 21.625C32.5179 21.625 32.9377 21.2053 32.9377 20.6875V18.8125C32.9377 18.2947 32.5179 17.875 32.0002 17.875C31.4824 17.875 31.0627 18.2947 31.0627 18.8125V20.6875C31.0627 21.2053 31.4824 21.625 32.0002 21.625ZM38.1252 23.2662C38.5716 23.524 39.1458 23.3735 39.4058 22.9231L40.3433 21.2993C40.6022 20.8509 40.4486 20.2775 40.0002 20.0187C39.5518 19.7597 38.9784 19.9133 38.7195 20.3618L37.782 21.9856C37.5231 22.4339 37.6767 23.0073 38.1252 23.2662ZM32.0002 42.3125C31.4824 42.3125 31.0627 42.7323 31.0627 43.25V45.1875C31.0627 45.7052 31.4824 46.125 32.0002 46.125C32.5179 46.125 32.9377 45.7052 32.9377 45.1875V43.25C32.9377 42.7323 32.5179 42.3125 32.0002 42.3125ZM24.5945 22.9231C24.8542 23.3729 25.4281 23.5244 25.8752 23.2662C26.3236 23.0073 26.4772 22.4339 26.2183 21.9856L25.2808 20.3618C25.0219 19.9133 24.4485 19.7598 24.0002 20.0187C23.5517 20.2776 23.3981 20.8509 23.657 21.2993L24.5945 22.9231ZM25.9064 40.6797C25.458 40.4206 24.8846 40.5744 24.6258 41.0228L23.657 42.7008C23.3981 43.1492 23.5517 43.7226 24.0002 43.9814C24.4468 44.2393 25.0209 44.0884 25.2808 43.6383L26.2495 41.9603C26.5085 41.5119 26.3549 40.9386 25.9064 40.6797Z" fill="white"/>
</g>
<defs>
<clipPath id="clip0_238_572">
<rect width="32" height="32" fill="white" transform="translate(16 16)"/>
</clipPath>
</defs>
</svg>
