<svg width="64" height="64" viewBox="0 0 64 64" fill="none" xmlns="http://www.w3.org/2000/svg">
<circle cx="32" cy="32" r="32" fill="#F6F6F6"/>
<path d="M24.9812 36.9687C24.9812 39.8 22.7875 42.1062 20.0938 42.1062C19.6625 42.1062 19.3125 41.7562 19.3125 41.325C19.3125 40.8937 19.6625 40.5437 20.0938 40.5437C21.925 40.5437 23.4187 38.9375 23.4187 36.9687C23.4187 36.5375 23.7687 36.1875 24.2 36.1875C24.6312 36.1875 24.9812 36.5375 24.9812 36.9687ZM32.7812 36.9687V45.6812C32.7812 46.1125 32.4312 46.4625 32 46.4625C31.5688 46.4625 31.2188 46.1125 31.2188 45.6812V36.9687C31.2188 36.5375 31.5688 36.1875 32 36.1875C32.4312 36.1875 32.7812 36.5375 32.7812 36.9687ZM44.6812 41.325C44.6812 41.7562 44.3312 42.1062 43.9 42.1062C41.2062 42.1062 39.0125 39.8 39.0125 36.9687C39.0125 36.5375 39.3625 36.1875 39.7938 36.1875C40.225 36.1875 40.575 36.5375 40.575 36.9687C40.575 38.9375 42.0688 40.5437 43.9 40.5437C44.3312 40.5437 44.6812 40.8937 44.6812 41.325ZM43.3188 17.5437H20.6813C19.3938 17.5437 18.3438 18.5937 18.3438 19.8812V26.3437H45.6562V19.8812C45.6562 18.5937 44.6063 17.5437 43.3188 17.5437ZM34.7062 24.275H29.2937C28.8625 24.275 28.5125 23.925 28.5125 23.4937C28.5125 23.0625 28.8625 22.7125 29.2937 22.7125H34.7062C35.1375 22.7125 35.4875 23.0625 35.4875 23.4937C35.4875 23.925 35.1375 24.275 34.7062 24.275ZM18.3438 27.9062V30.225C18.3438 31.5125 19.3938 32.5625 20.6813 32.5625H43.3125C44.6 32.5625 45.65 31.5125 45.65 30.225V27.9062H18.3438ZM42.825 31.0125H21.175C20.7438 31.0125 20.3938 30.6625 20.3938 30.2312C20.3938 29.8 20.7438 29.45 21.175 29.45H42.8312C43.2625 29.45 43.6125 29.8 43.6125 30.2312C43.6062 30.6625 43.2563 31.0125 42.825 31.0125Z" fill="#947F41"/>
</svg>
