<svg width="64" height="64" viewBox="0 0 64 64" fill="none" xmlns="http://www.w3.org/2000/svg">
<circle cx="32" cy="32" r="32" fill="#F6F6F6"/>
<g clip-path="url(#clip0_238_673)">
<path d="M19.75 47.9375C21.8211 47.9375 23.5 46.2586 23.5 44.1875C23.5 42.1164 21.8211 40.4375 19.75 40.4375C17.6789 40.4375 16 42.1164 16 44.1875C16 46.2586 17.6789 47.9375 19.75 47.9375Z" fill="#947F41"/>
<path d="M34.875 47.9375C36.9461 47.9375 38.625 46.2586 38.625 44.1875C38.625 42.1164 36.9461 40.4375 34.875 40.4375C32.8039 40.4375 31.125 42.1164 31.125 44.1875C31.125 46.2586 32.8039 47.9375 34.875 47.9375Z" fill="#947F41"/>
<path d="M23.625 32C23.625 32.5177 24.0447 32.9375 24.5625 32.9375H33V30.125C33 28.8826 32.523 27.7217 31.6743 26.8731C30.8091 25.9612 29.5833 25.4375 28.3125 25.4375H23.625V32Z" fill="#947F41"/>
<path d="M17.875 34.8124V38.5624H34.875V34.8124H24.5625C23.0092 34.8124 21.75 33.5532 21.75 31.9999V31.0624H17.875V32.9374H19.75V34.8124H17.875ZM45.1875 36.8205V23.5485C45.1761 23.5486 45.1651 23.5532 45.1536 23.5532C44.7436 23.5532 44.3481 23.4825 43.9624 23.3806C43.1787 23.1738 42.455 22.7818 41.8678 22.1946C40.9741 21.3014 40.5241 20.1339 40.5028 18.9604L32.5312 25.1373C32.7001 25.2874 32.8875 25.4186 33.0376 25.5873C34.2188 26.7499 34.875 28.3811 34.875 30.1249V30.4436L43.3125 23.8811V36.8205C41.6996 37.2396 40.5 38.6948 40.5 40.4373C40.5 42.5055 42.1818 44.1873 44.25 44.1873C46.3182 44.1873 48 42.5055 48 40.4373C48 38.6948 46.8004 37.2397 45.1875 36.8205ZM23.912 40.4374C24.8115 41.4348 25.375 42.7415 25.375 44.1874C25.375 45.6333 24.8115 46.94 23.912 47.9374H30.713C29.8135 46.94 29.25 45.6333 29.25 44.1874C29.25 42.7415 29.8135 41.4348 30.713 40.4374H23.912Z" fill="#947F41"/>
<path d="M45.1875 21.6875C46.7408 21.6875 48 20.4283 48 18.875C48 17.3217 46.7408 16.0625 45.1875 16.0625C43.6342 16.0625 42.375 17.3217 42.375 18.875C42.375 20.4283 43.6342 21.6875 45.1875 21.6875Z" fill="#947F41"/>
</g>
<defs>
<clipPath id="clip0_238_673">
<rect width="32" height="32" fill="white" transform="translate(16 16)"/>
</clipPath>
</defs>
</svg>
