<svg width="64" height="64" viewBox="0 0 64 64" fill="none" xmlns="http://www.w3.org/2000/svg">
<circle cx="32" cy="32" r="32" fill="#F6F6F6"/>
<g clip-path="url(#clip0_238_699)">
<path d="M40.6668 16C36.616 16 33.3332 19.2824 33.3332 23.3332V40.6668C33.3332 43.2448 31.2432 45.3332 28.6668 45.3332C26.09 45.3332 24 43.2448 24 40.6668V33.1992C27.0428 32.5808 29.3332 29.8916 29.3332 26.6668V22.6668H26.6668V17.3332C26.6668 16.5964 26.0704 16 25.3332 16C24.5964 16 24 16.5964 24 17.3332V22.6668H21.3332V17.3332C21.3332 16.5964 20.7372 16 20 16C19.2628 16 18.6668 16.5964 18.6668 17.3332V22.6668H16V26.6668C16 29.892 18.2904 32.5808 21.3332 33.1992V40.6668C21.3332 44.7176 24.6172 48 28.6668 48C32.716 48 36 44.7176 36 40.6668V23.3332C36 20.7552 38.0888 18.6668 40.6668 18.6668C43.2448 18.6668 45.3332 20.7552 45.3332 23.3332V48H48V23.3332C48 19.2824 44.7176 16 40.6668 16Z" fill="#947F41"/>
</g>
<defs>
<clipPath id="clip0_238_699">
<rect width="32" height="32" fill="white" transform="translate(16 16)"/>
</clipPath>
</defs>
</svg>
