<svg width="64" height="64" viewBox="0 0 64 64" fill="none" xmlns="http://www.w3.org/2000/svg">
<circle cx="32" cy="32" r="32" fill="#F6F6F6"/>
<g clip-path="url(#clip0_238_646)">
<path fill-rule="evenodd" clip-rule="evenodd" d="M17.0043 27.9402C17.0158 27.9563 17.0306 27.9697 17.0478 27.9796C17.0649 27.9894 17.084 27.9955 17.1037 27.9973C17.1404 27.9981 17.1761 27.9851 17.2037 27.9608L17.8825 27.3437H17.8859L27.3315 18.7638C27.4367 18.6682 27.5737 18.6153 27.7157 18.6153C27.8578 18.6153 27.9948 18.6682 28.1 18.7638L37.2421 27.0711C37.7522 26.6811 38.3105 26.3586 38.9032 26.1117L27.8114 16.0383C27.786 16.0137 27.752 16 27.7166 16C27.6812 16 27.6472 16.0137 27.6217 16.0383L16.0592 26.5346C16.0243 26.5709 16.0036 26.6185 16.001 26.6688C15.9984 26.7191 16.014 26.7686 16.045 26.8083L17.0043 27.9402Z" fill="#947F41"/>
<path fill-rule="evenodd" clip-rule="evenodd" d="M36.3877 27.8386L27.7153 19.9587L18.8589 28.0003V37.9795C18.8595 38.4621 19.2505 38.8531 19.7331 38.8537H24.0014V32.5685C24.0014 31.6218 24.7688 30.8543 25.7155 30.8543H29.7152C30.6619 30.8543 31.4293 31.6218 31.4293 32.5685V38.8537H32.3955L34.9399 35.9123C33.7957 33.2986 34.2581 30.2599 36.1278 28.1049C36.2094 28.0106 36.3015 27.9283 36.3877 27.8386ZM33.8634 18.2839C33.8243 18.2849 33.7871 18.3009 33.7594 18.3286C33.7318 18.3562 33.7158 18.3934 33.7148 18.4325V19.8558L36.5717 22.4499V18.4325C36.5707 18.3935 36.5547 18.3563 36.5271 18.3286C36.4994 18.301 36.4623 18.285 36.4232 18.284L33.8634 18.2839Z" fill="#947F41"/>
<path d="M29.2009 47.53C30.0622 48.2423 31.3355 48.1327 32.0624 47.2837L39.1595 39.0724C39.2331 38.9866 39.3304 38.9245 39.4392 38.8939C39.548 38.8634 39.6635 38.8659 39.7709 38.901C40.7139 39.2124 41.7175 39.2952 42.6988 39.1425C43.6801 38.9897 44.611 38.6059 45.4148 38.0225C46.2185 37.4392 46.8721 36.6731 47.3215 35.7874C47.7708 34.9018 48.0032 33.922 47.9994 32.9289C47.9978 32.8123 47.9607 32.6991 47.893 32.6043C47.8252 32.5094 47.7301 32.4376 47.6204 32.3984C47.5106 32.3591 47.3915 32.3544 47.279 32.3848C47.1665 32.4151 47.066 32.4792 46.9909 32.5683L44.5517 35.3892C44.4968 35.4527 44.4286 35.5033 44.352 35.5375C44.2754 35.5717 44.1922 35.5886 44.1083 35.5869L40 35.5121C39.8663 35.5097 39.7376 35.4605 39.6364 35.373C39.5353 35.2855 39.468 35.1653 39.4463 35.0333L38.7812 30.9798C38.7675 30.8968 38.7724 30.8117 38.7954 30.7307C38.8184 30.6497 38.859 30.5748 38.9144 30.5113L41.353 27.6915C41.8856 27.0761 41.657 26.6321 40.8519 26.7476C39.8701 26.8866 38.9352 27.2568 38.1243 27.8276C37.3134 28.3984 36.6496 29.1536 36.1875 30.031C35.7254 30.9084 35.4781 31.883 35.4662 32.8746C35.4542 33.8662 35.6778 34.8465 36.1186 35.7349C36.1717 35.8371 36.1933 35.9529 36.1806 36.0674C36.1678 36.1819 36.1214 36.2901 36.0472 36.3782L28.9449 44.5902C28.7648 44.7982 28.6283 45.0402 28.5433 45.3018C28.4584 45.5635 28.4268 45.8396 28.4505 46.1137C28.4741 46.3878 28.5525 46.6544 28.681 46.8976C28.8095 47.1409 28.9855 47.3559 29.1986 47.53H29.2009ZM30.2974 45.3381L31.3459 44.1148C31.5533 43.8847 31.9064 43.8618 32.1418 44.0633C32.3772 44.2648 32.4091 44.6171 32.2137 44.8576L31.1652 46.0809C30.9578 46.3111 30.6047 46.334 30.3693 46.1325C30.134 45.931 30.102 45.5786 30.2974 45.3381Z" fill="#947F41"/>
<path fill-rule="evenodd" clip-rule="evenodd" d="M30.2868 32.5684C30.2868 32.2529 30.0309 31.9971 29.7154 31.9971H25.7157C25.4001 31.9971 25.1443 32.2529 25.1443 32.5684V38.8537H30.2867V32.5684H30.2868Z" fill="#947F41"/>
</g>
<defs>
<clipPath id="clip0_238_646">
<rect width="32" height="32" fill="white" transform="translate(16 16)"/>
</clipPath>
</defs>
</svg>
