<svg width="64" height="64" viewBox="0 0 64 64" fill="none" xmlns="http://www.w3.org/2000/svg">
<circle cx="32" cy="32" r="32" fill="#F6F6F6"/>
<path d="M45.1788 44.5121L36.5548 35.8881C37.0401 34.0801 36.5334 32.1761 35.2001 30.8481C34.5623 30.207 33.7686 29.7429 32.897 29.5017C32.0255 29.2604 31.1061 29.2502 30.2294 29.4721C30.0428 29.5148 29.8987 29.6588 29.8454 29.8454C29.7921 30.0321 29.8454 30.2294 29.9787 30.3628L32.5654 32.9548L32.1014 35.1574L29.8934 35.6268L27.3068 33.0401C27.2414 32.972 27.1586 32.923 27.0674 32.8986C26.9762 32.8742 26.8801 32.8751 26.7894 32.9014C26.6027 32.9494 26.4587 33.0988 26.4161 33.2854C25.9627 35.0881 26.4747 36.9494 27.7867 38.2614C29.1201 39.5948 31.0294 40.1014 32.8321 39.6161L38.4801 45.2641C38.5814 45.3654 38.7148 45.4188 38.8588 45.4188H44.8001C45.0188 45.4188 45.2108 45.2908 45.2961 45.0934C45.3761 44.8908 45.3334 44.6561 45.1788 44.5121ZM19.2427 19.9788C18.9494 19.9788 18.7094 20.2188 18.7094 20.5121L18.6667 27.2854C18.6667 27.5788 18.9067 27.8188 19.2001 27.8241L22.8801 27.8454C22.8747 27.7601 22.8534 27.6801 22.8587 27.5948L22.9014 20.2508C22.9014 20.1654 22.9174 20.0854 22.9281 20.0001L19.2481 19.9788H19.2427Z" fill="#947F41"/>
<path d="M27.408 29.3068C28.24 29.3068 28.928 28.6881 29.0614 27.8935L34.8374 27.9095C34.892 28.3103 35.0891 28.6781 35.3927 28.9455C35.6964 29.2129 36.0861 29.362 36.4907 29.3655L38.2934 29.3761H38.304C39.2267 29.3761 39.9787 28.6295 39.984 27.7015L40.0267 20.3575C40.0281 20.1368 39.986 19.9181 39.9029 19.7137C39.8198 19.5094 39.6972 19.3234 39.5422 19.1664C39.3872 19.0094 39.2028 18.8845 38.9995 18.7987C38.7962 18.713 38.578 18.6682 38.3574 18.6668L36.5547 18.6561C36.1536 18.6515 35.7643 18.792 35.4585 19.0517C35.1528 19.3114 34.9511 19.6729 34.8907 20.0695L29.1147 20.0481C29.0599 19.6478 28.8625 19.2807 28.5588 19.0142C28.2551 18.7477 27.8654 18.5998 27.4614 18.5975L25.6587 18.5868C25.1947 18.5815 24.7894 18.7575 24.4694 19.0721C24.1494 19.3868 23.9734 19.8081 23.968 20.2561L23.9254 27.6001C23.9222 28.0463 24.0963 28.4754 24.4092 28.7934C24.7222 29.1114 25.1486 29.2922 25.5947 29.2961L27.3974 29.3068H27.408ZM44.752 20.1335L41.072 20.1121C41.0774 20.1975 41.0934 20.2775 41.0934 20.3575L41.0507 27.7015C41.0507 27.7868 41.0294 27.8668 41.024 27.9521L44.7094 27.9735C45.0027 27.9735 45.2427 27.7388 45.2427 27.4455L45.2854 20.6721C45.2854 20.5281 45.2267 20.3948 45.1307 20.2935C45.0813 20.2431 45.0224 20.203 44.9574 20.1755C44.8924 20.148 44.8226 20.1337 44.752 20.1335ZM21.792 33.3015H21.8027C22.2827 33.3015 22.7147 33.1095 23.0294 32.7948C23.344 32.4801 23.5414 32.0535 23.5414 31.5735C23.5467 30.8055 22.5654 29.2535 22.2667 28.7948C22.1654 28.6455 22 28.5548 21.824 28.5548H21.8187C21.6427 28.5548 21.4774 28.6401 21.376 28.7895C21.072 29.2428 20.0694 30.7841 20.0694 31.5521C20.0664 32.0124 20.2461 32.455 20.569 32.783C20.892 33.1109 21.3318 33.2974 21.792 33.3015Z" fill="#947F41"/>
</svg>
