<svg width="64" height="65" viewBox="0 0 64 65" fill="none" xmlns="http://www.w3.org/2000/svg">
<circle cx="32" cy="32.0283" r="32" fill="#FFF9E6"/>
<g clip-path="url(#clip0_238_2161)">
<path d="M32 22.9033C33.8985 22.9033 35.4375 21.3643 35.4375 19.4658C35.4375 17.5673 33.8985 16.0283 32 16.0283C30.1015 16.0283 28.5625 17.5673 28.5625 19.4658C28.5625 21.3643 30.1015 22.9033 32 22.9033Z" fill="#947F41"/>
<path d="M25.8183 41.9634C24.848 43.0021 23.4678 43.6533 21.9375 43.6533C20.4072 43.6533 19.027 43.0021 18.0567 41.9634C16.8163 42.8076 16 44.2306 16 45.8408V47.0908C16 47.6086 16.4197 48.0283 16.9375 48.0283H26.9375C27.4552 48.0283 27.875 47.6086 27.875 47.0908V45.8408C27.875 44.2306 27.0587 42.8076 25.8183 41.9634ZM45.9433 41.9634C44.973 43.0021 43.5928 43.6533 42.0625 43.6533C40.5322 43.6533 39.152 43.0021 38.1817 41.9634C36.9413 42.8076 36.125 44.2306 36.125 45.8408V47.0908C36.125 47.6086 36.5448 48.0283 37.0625 48.0283H47.0625C47.5802 48.0283 48 47.6086 48 47.0908V45.8408C48 44.2306 47.1837 42.8076 45.9433 41.9634ZM38.6701 38.8939C38.9355 40.5273 40.3554 41.7783 42.0625 41.7783C43.9579 41.7783 45.5 40.2363 45.5 38.3408C45.5 36.4454 43.9579 34.9033 42.0625 34.9033C40.6421 34.9033 39.4202 35.7693 38.8969 37.0011L34.8097 35.7318C34.7647 34.557 33.996 33.565 32.9375 33.1896V29.1533H37C37.5177 29.1533 37.9375 28.7336 37.9375 28.2158V26.9658C37.9375 25.3556 37.1212 23.9326 35.8808 23.0884C34.9105 24.1271 33.5303 24.7783 32 24.7783C30.4698 24.7783 29.0895 24.1271 28.1192 23.0884C26.8788 23.9326 26.0625 25.3556 26.0625 26.9658V28.2158C26.0625 28.7336 26.4823 29.1533 27 29.1533H31.0625V33.1896C30.004 33.565 29.2354 34.5569 29.1903 35.7318L25.1031 37.0011C24.5798 35.7693 23.3579 34.9033 21.9375 34.9033C20.0421 34.9033 18.5 36.4454 18.5 38.3408C18.5 40.2363 20.0421 41.7783 21.9375 41.7783C23.6446 41.7783 25.0645 40.5273 25.3299 38.8939L29.7467 37.5223C30.2601 38.2084 31.0791 38.6533 32 38.6533C32.9209 38.6533 33.7399 38.2084 34.2533 37.5222L38.6701 38.8939Z" fill="#947F41"/>
</g>
<defs>
<clipPath id="clip0_238_2161">
<rect width="32" height="32" fill="white" transform="translate(16 16.0283)"/>
</clipPath>
</defs>
</svg>
