<svg width="32" height="32" viewBox="0 0 32 32" fill="none" xmlns="http://www.w3.org/2000/svg">
<path d="M0.799805 13.0579C0.799805 7.64225 5.1902 3.25153 10.6062 3.25153C10.8638 3.25148 11.1189 3.30219 11.3569 3.40076C11.5949 3.49932 11.8112 3.64381 11.9934 3.82597C12.1755 4.00813 12.32 4.22439 12.4186 4.4624C12.5171 4.70042 12.5678 4.95551 12.5678 5.21313C12.5567 5.73435 12.3428 6.23072 11.9717 6.59685C11.6005 6.96298 11.1013 7.17004 10.58 7.17409C7.3406 7.18849 4.72236 9.81857 4.72236 13.0579V14.0387H10.6062C10.9926 14.0387 11.3751 14.1148 11.7321 14.2627C12.089 14.4105 12.4134 14.6273 12.6866 14.9004C12.9598 15.1736 13.1765 15.498 13.3243 15.8549C13.4722 16.2119 13.5483 16.5945 13.5483 16.9808V25.8064C13.5483 26.1928 13.4722 26.5754 13.3243 26.9323C13.1765 27.2893 12.9598 27.6136 12.6866 27.8868C12.4134 28.16 12.089 28.3767 11.7321 28.5245C11.3751 28.6724 10.9926 28.7485 10.6062 28.7485H3.74188C2.9616 28.7485 2.21327 28.4385 1.66152 27.8868C1.10977 27.335 0.799805 26.5867 0.799805 25.8064V13.0579ZM18.4513 25.8067C18.4514 26.587 18.7614 27.3352 19.3131 27.8869C19.8649 28.4386 20.6132 28.7485 21.3934 28.7485H28.2577C29.038 28.7485 29.7863 28.4385 30.3381 27.8868C30.8898 27.335 31.1998 26.5867 31.1998 25.8064V16.9808C31.1998 16.2005 30.8898 15.4522 30.3381 14.9004C29.7863 14.3487 29.038 14.0387 28.2577 14.0387H22.3742V13.0579C22.3742 9.81857 24.9928 7.18849 28.2321 7.17409C28.7534 7.16988 29.2525 6.96269 29.6235 6.59651C29.9945 6.23033 30.2083 5.73398 30.2193 5.21281C30.2193 4.95525 30.1686 4.70021 30.07 4.46226C29.9715 4.2243 29.827 4.00809 29.6449 3.82597C29.4627 3.64385 29.2465 3.49938 29.0086 3.40082C28.7706 3.30226 28.5156 3.25153 28.258 3.25153C22.8424 3.25153 18.4516 7.64193 18.4516 13.0579L18.4513 25.8067Z" fill="#70674B"/>
</svg>
