<svg width="80" height="80" viewBox="0 0 80 80" fill="none" xmlns="http://www.w3.org/2000/svg">
<path d="M78 47.3552C78 60.8944 67.024 71.8712 53.484 71.8712C52.84 71.8713 52.2022 71.7445 51.6072 71.4981C51.0122 71.2517 50.4715 70.8905 50.0161 70.4351C49.5607 69.9797 49.1995 69.439 48.9531 68.844C48.7067 68.249 48.5799 67.6112 48.58 66.9672C48.6079 65.6641 49.1425 64.4232 50.0703 63.5079C50.9982 62.5926 52.2463 62.0749 53.5496 62.0648C61.648 62.0288 68.1936 55.4536 68.1936 47.3552V44.9032H53.484C52.5181 44.9032 51.5617 44.7129 50.6693 44.3433C49.7769 43.9737 48.9661 43.4319 48.2831 42.7489C47.6001 42.0659 47.0583 41.2551 46.6887 40.3627C46.3191 39.4703 46.1288 38.5139 46.1288 37.548V15.484C46.1288 14.5181 46.3191 13.5616 46.6887 12.6693C47.0583 11.7769 47.6001 10.9661 48.2831 10.2831C48.9661 9.60007 49.7769 9.05829 50.6693 8.68866C51.5617 8.31903 52.5181 8.12878 53.484 8.12878H70.6448C72.5955 8.12878 74.4663 8.90369 75.8457 10.2831C77.2251 11.6624 78 13.5333 78 15.484V47.3552ZM33.8712 15.4832C33.871 13.5326 33.096 11.662 31.7167 10.2828C30.3373 8.90359 28.4666 8.12878 26.516 8.12878H9.35524C7.40452 8.12878 5.5337 8.90369 4.15434 10.2831C2.77496 11.6624 2.00005 13.5333 2.00005 15.484V37.548C2.00005 39.4987 2.77496 41.3695 4.15434 42.7489C5.5337 44.1283 7.40452 44.9032 9.35524 44.9032H24.064V47.3552C24.064 55.4536 17.5176 62.0288 9.41924 62.0648C8.11606 62.0753 6.86827 62.5933 5.94072 63.5087C5.01318 64.4242 4.47888 65.6651 4.45125 66.968C4.45125 67.6119 4.57806 68.2495 4.82448 68.8444C5.07088 69.4393 5.43205 69.9798 5.88736 70.4351C6.34266 70.8904 6.88319 71.2516 7.47807 71.498C8.07295 71.7444 8.71054 71.8712 9.35444 71.8712C22.8936 71.8712 33.8704 60.8952 33.8704 47.3552L33.8712 15.4832Z" fill="#DBD0AF"/>
</svg>
