<svg width="80" height="80" viewBox="0 0 80 80" fill="none" xmlns="http://www.w3.org/2000/svg">
<path d="M2 32.6448C2 19.1056 12.976 8.12878 26.516 8.12878C27.16 8.12868 27.7978 8.25545 28.3928 8.50186C28.9878 8.74828 29.5285 9.1095 29.9839 9.5649C30.4393 10.0203 30.8005 10.561 31.0469 11.156C31.2933 11.751 31.4201 12.3888 31.42 13.0328C31.3921 14.3359 30.8575 15.5768 29.9297 16.4921C29.0018 17.4074 27.7537 17.9251 26.4504 17.9352C18.352 17.9712 11.8064 24.5464 11.8064 32.6448V35.0968H26.516C27.4819 35.0968 28.4383 35.2871 29.3307 35.6567C30.2231 36.0263 31.0339 36.5681 31.7169 37.2511C32.3999 37.9341 32.9417 38.7449 33.3113 39.6373C33.6809 40.5297 33.8712 41.4861 33.8712 42.452V64.516C33.8712 65.4819 33.6809 66.4384 33.3113 67.3307C32.9417 68.2231 32.3999 69.0339 31.7169 69.7169C31.0339 70.3999 30.2231 70.9417 29.3307 71.3113C28.4383 71.681 27.4819 71.8712 26.516 71.8712H9.3552C7.40448 71.8712 5.53365 71.0963 4.15429 69.7169C2.77492 68.3376 2 66.4667 2 64.516V32.6448ZM46.1288 64.5168C46.129 66.4674 46.904 68.338 48.2833 69.7172C49.6627 71.0964 51.5334 71.8712 53.484 71.8712H70.6448C72.5955 71.8712 74.4663 71.0963 75.8457 69.7169C77.225 68.3376 78 66.4667 78 64.516V42.452C78 40.5013 77.225 38.6305 75.8457 37.2511C74.4663 35.8717 72.5955 35.0968 70.6448 35.0968H55.936V32.6448C55.936 24.5464 62.4824 17.9712 70.5808 17.9352C71.8839 17.9247 73.1317 17.4067 74.0593 16.4913C74.9868 15.5758 75.5211 14.3349 75.5488 13.032C75.5488 12.3881 75.4219 11.7505 75.1755 11.1556C74.9291 10.5607 74.5679 10.0202 74.1126 9.5649C73.6573 9.10959 73.1168 8.74843 72.5219 8.50202C71.927 8.25561 71.2895 8.12878 70.6456 8.12878C57.1064 8.12878 46.1296 19.1048 46.1296 32.6448L46.1288 64.5168Z" fill="#DBD0AF"/>
</svg>
