<svg width="32" height="32" viewBox="0 0 32 32" fill="none" xmlns="http://www.w3.org/2000/svg">
<g clip-path="url(#clip0_282_1276)">
<path d="M22.0952 25.0155H11.4286C11.1928 25.0155 10.9667 24.9219 10.8 24.7552C10.6333 24.5885 10.5397 24.3624 10.5397 24.1266C10.5397 23.8909 10.6333 23.6648 10.8 23.4981C10.9667 23.3314 11.1928 23.2377 11.4286 23.2377H22.0952C22.331 23.2377 22.5571 23.3314 22.7238 23.4981C22.8905 23.6648 22.9841 23.8909 22.9841 24.1266C22.9841 24.3624 22.8905 24.5885 22.7238 24.7552C22.5571 24.9219 22.331 25.0155 22.0952 25.0155ZM26.5397 9.90441V17.0155C26.5397 17.5992 26.4247 18.1771 26.2014 18.7163C25.978 19.2556 25.6506 19.7455 25.2379 20.1582C24.8252 20.5709 24.3353 20.8983 23.7961 21.1216C23.2568 21.345 22.6789 21.46 22.0952 21.46H11.4286C10.8449 21.46 10.267 21.345 9.72776 21.1216C9.18853 20.8983 8.69858 20.5709 8.28588 20.1582C7.45238 19.3247 6.98413 18.1943 6.98413 17.0155V9.90441C6.98413 8.72567 7.45238 7.5952 8.28588 6.76171C9.11937 5.92821 10.2498 5.45996 11.4286 5.45996H22.0952C22.6789 5.45996 23.2568 5.57492 23.7961 5.79827C24.3353 6.02163 24.8252 6.349 25.2379 6.76171C25.6506 7.17441 25.978 7.66437 26.2014 8.20359C26.4247 8.74281 26.5397 9.32075 26.5397 9.90441ZM10.5397 11.6822C10.5397 11.9179 10.6333 12.144 10.8 12.3107C10.9667 12.4774 11.1928 12.5711 11.4286 12.5711H16.7619C16.9977 12.5711 17.2237 12.4774 17.3904 12.3107C17.5571 12.144 17.6508 11.9179 17.6508 11.6822C17.6508 11.4464 17.5571 11.2203 17.3904 11.0536C17.2237 10.8869 16.9977 10.7933 16.7619 10.7933H11.4286C11.1928 10.7933 10.9667 10.8869 10.8 11.0536C10.6333 11.2203 10.5397 11.4464 10.5397 11.6822ZM22.9841 15.2377C22.9841 15.002 22.8905 14.7759 22.7238 14.6092C22.5571 14.4425 22.331 14.3489 22.0952 14.3489H11.4286C11.1928 14.3489 10.9667 14.4425 10.8 14.6092C10.6333 14.7759 10.5397 15.002 10.5397 15.2377C10.5397 15.4735 10.6333 15.6996 10.8 15.8663C10.9667 16.033 11.1928 16.1266 11.4286 16.1266H22.0952C22.331 16.1266 22.5571 16.033 22.7238 15.8663C22.8905 15.6996 22.9841 15.4735 22.9841 15.2377Z" fill="#F3F3F3"/>
</g>
<defs>
<clipPath id="clip0_282_1276">
<rect width="21.3333" height="21.3333" fill="white" transform="translate(6.09521 4.57129)"/>
</clipPath>
</defs>
</svg>
