<svg width="32" height="32" viewBox="0 0 32 32" fill="none" xmlns="http://www.w3.org/2000/svg">
<path d="M25.3334 8.18584C25.3334 7.38614 24.6833 6.73535 23.8842 6.73535H14.9162C14.1171 6.73535 13.4663 7.38614 13.4663 8.18584V13.8234C13.4663 14.6231 14.1171 15.2739 14.9162 15.2739H18.9677C19.0816 15.2739 19.1917 15.3165 19.2742 15.3939L22.2462 18.1782C22.2462 18.1782 22.3079 18.2359 22.3601 18.2173C22.4242 18.1941 22.3975 18.1131 22.3975 18.1131V15.7219C22.3975 15.4741 22.5983 15.2739 22.8461 15.2739H23.8842C24.6833 15.2739 25.3334 14.6231 25.3334 13.8234V8.18584ZM21.9628 12.6934H16.8369C16.7769 12.6953 16.7172 12.685 16.6612 12.6634C16.6052 12.6417 16.5542 12.609 16.5111 12.5672C16.468 12.5254 16.4338 12.4754 16.4104 12.4201C16.387 12.3648 16.3749 12.3054 16.3749 12.2454C16.3749 12.1854 16.387 12.126 16.4104 12.0707C16.4338 12.0154 16.468 11.9654 16.5111 11.9236C16.5542 11.8819 16.6052 11.8492 16.6612 11.8275C16.7172 11.8058 16.7769 11.7956 16.8369 11.7974H21.9628C22.0228 11.7956 22.0826 11.8058 22.1385 11.8275C22.1945 11.8492 22.2455 11.8819 22.2886 11.9236C22.3317 11.9654 22.366 12.0154 22.3894 12.0707C22.4128 12.126 22.4248 12.1854 22.4248 12.2454C22.4248 12.3054 22.4128 12.3648 22.3894 12.4201C22.366 12.4754 22.3317 12.5254 22.2886 12.5672C22.2455 12.609 22.1945 12.6417 22.1385 12.6634C22.0826 12.685 22.0228 12.6953 21.9628 12.6934ZM21.9628 10.1306H16.8369C16.7769 10.1324 16.7172 10.1222 16.6612 10.1005C16.6052 10.0788 16.5542 10.0461 16.5111 10.0043C16.468 9.96255 16.4338 9.91254 16.4104 9.85727C16.387 9.80199 16.3749 9.74258 16.3749 9.68256C16.3749 9.62254 16.387 9.56313 16.4104 9.50786C16.4338 9.45259 16.468 9.40257 16.5111 9.36079C16.5542 9.31901 16.6052 9.28631 16.6612 9.26462C16.7172 9.24294 16.7769 9.23272 16.8369 9.23456H21.9628C22.0228 9.23272 22.0826 9.24294 22.1385 9.26462C22.1945 9.28631 22.2455 9.31901 22.2886 9.36079C22.3317 9.40257 22.366 9.45259 22.3894 9.50786C22.4128 9.56313 22.4248 9.62254 22.4248 9.68256C22.4248 9.74258 22.4128 9.80199 22.3894 9.85727C22.366 9.91254 22.3317 9.96255 22.2886 10.0043C22.2455 10.0461 22.1945 10.0788 22.1385 10.1005C22.0826 10.1222 22.0228 10.1324 21.9628 10.1306Z" fill="#F3F3F3"/>
<path d="M18.5332 16.1699H14.9161C13.6199 16.1699 12.569 15.1191 12.569 13.8228V13.7833H8.11469C7.92454 13.7833 7.73626 13.8208 7.56059 13.8936C7.38491 13.9663 7.22529 14.073 7.09084 14.2074C6.8193 14.479 6.66675 14.8473 6.66675 15.2313V20.8701C6.66675 21.2541 6.8193 21.6224 7.09084 21.8939C7.22529 22.0284 7.38491 22.135 7.56059 22.2078C7.73626 22.2806 7.92454 22.318 8.11469 22.318H9.15281C9.40057 22.318 9.60145 22.5183 9.60145 22.766V25.1626C9.60145 25.1626 9.58575 25.222 9.64642 25.2523C9.70835 25.2833 9.75523 25.2339 9.75523 25.2339L12.7285 22.4394L13.0348 22.318H17.0847C17.4688 22.318 17.8372 22.1653 18.1089 21.8937C18.3805 21.622 18.5332 21.2536 18.5332 20.8695V16.1699ZM10.2934 18.4536C10.2355 18.4536 10.1783 18.4422 10.1248 18.4201C10.0714 18.398 10.0228 18.3656 9.98189 18.3247C9.94098 18.2838 9.90853 18.2352 9.88638 18.1818C9.86423 18.1284 9.85282 18.0711 9.85281 18.0132C9.8528 17.9554 9.86417 17.8981 9.8863 17.8447C9.90842 17.7912 9.94085 17.7427 9.98174 17.7018C10.0226 17.6608 10.0712 17.6284 10.1246 17.6062C10.1781 17.5841 10.2353 17.5727 10.2932 17.5727C10.41 17.5726 10.522 17.619 10.6047 17.7016C10.6873 17.7842 10.7337 17.8962 10.7337 18.013C10.7338 18.1299 10.6874 18.2419 10.6048 18.3245C10.5222 18.4071 10.4102 18.4536 10.2934 18.4536ZM12.8562 18.4536C12.7984 18.4536 12.7411 18.4422 12.6877 18.4201C12.6342 18.398 12.5857 18.3656 12.5447 18.3247C12.5038 18.2838 12.4714 18.2352 12.4492 18.1818C12.4271 18.1284 12.4157 18.0711 12.4157 18.0132C12.4156 17.9554 12.427 17.8981 12.4491 17.8447C12.4713 17.7912 12.5037 17.7427 12.5446 17.7018C12.5855 17.6608 12.634 17.6284 12.6875 17.6062C12.7409 17.5841 12.7982 17.5727 12.856 17.5727C12.9728 17.5726 13.0849 17.619 13.1675 17.7016C13.2501 17.7842 13.2966 17.8962 13.2966 18.013C13.2966 18.1299 13.2502 18.2419 13.1677 18.3245C13.0851 18.4071 12.9731 18.4536 12.8562 18.4536ZM15.4191 18.4536C15.3612 18.4536 15.304 18.4422 15.2505 18.4201C15.1971 18.398 15.1485 18.3656 15.1076 18.3247C15.0667 18.2838 15.0342 18.2352 15.0121 18.1818C14.9899 18.1284 14.9785 18.0711 14.9785 18.0132C14.9785 17.9554 14.9899 17.8981 15.012 17.8447C15.0341 17.7912 15.0666 17.7427 15.1074 17.7018C15.1483 17.6608 15.1969 17.6284 15.2503 17.6062C15.3038 17.5841 15.361 17.5727 15.4189 17.5727C15.5357 17.5726 15.6477 17.619 15.7304 17.7016C15.813 17.7842 15.8594 17.8962 15.8594 18.013C15.8595 18.1299 15.8131 18.2419 15.7305 18.3245C15.6479 18.4071 15.5359 18.4536 15.4191 18.4536ZM10.2934 10.7712H9.01196C8.95197 10.7731 8.89222 10.7628 8.83625 10.7412C8.78028 10.7195 8.72924 10.6868 8.68615 10.645C8.64306 10.6032 8.6088 10.5532 8.58541 10.4979C8.56202 10.4426 8.54996 10.3832 8.54996 10.3232C8.54996 10.2632 8.56202 10.2038 8.58541 10.1485C8.6088 10.0932 8.64306 10.0432 8.68615 10.0014C8.72924 9.95966 8.78028 9.92695 8.83625 9.90527C8.89222 9.88359 8.95197 9.87337 9.01196 9.87521H10.2934C10.3534 9.87337 10.4131 9.88359 10.4691 9.90527C10.5251 9.92695 10.5761 9.95966 10.6192 10.0014C10.6623 10.0432 10.6965 10.0932 10.7199 10.1485C10.7433 10.2038 10.7554 10.2632 10.7554 10.3232C10.7554 10.3832 10.7433 10.4426 10.7199 10.4979C10.6965 10.5532 10.6623 10.6032 10.6192 10.645C10.5761 10.6868 10.5251 10.7195 10.4691 10.7412C10.4131 10.7628 10.3534 10.7731 10.2934 10.7712ZM23.1078 22.3042H21.8264C21.7664 22.3061 21.7067 22.2959 21.6507 22.2742C21.5947 22.2525 21.5437 22.2198 21.5006 22.178C21.4575 22.1362 21.4233 22.0862 21.3999 22.0309C21.3765 21.9757 21.3644 21.9163 21.3644 21.8562C21.3644 21.7962 21.3765 21.7368 21.3999 21.6815C21.4233 21.6263 21.4575 21.5763 21.5006 21.5345C21.5437 21.4927 21.5947 21.46 21.6507 21.4383C21.7067 21.4166 21.7664 21.4064 21.8264 21.4082H23.1078C23.1678 21.4064 23.2276 21.4166 23.2836 21.4383C23.3395 21.46 23.3906 21.4927 23.4336 21.5345C23.4767 21.5763 23.511 21.6263 23.5344 21.6815C23.5578 21.7368 23.5698 21.7962 23.5698 21.8562C23.5698 21.9163 23.5578 21.9757 23.5344 22.0309C23.511 22.0862 23.4767 22.1362 23.4336 22.178C23.3906 22.2198 23.3395 22.2525 23.2836 22.2742C23.2276 22.2959 23.1678 22.3061 23.1078 22.3042Z" fill="#F3F3F3"/>
</svg>
