<svg width="32" height="32" viewBox="0 0 32 32" fill="none" xmlns="http://www.w3.org/2000/svg">
<mask id="mask0_282_1293" style="mask-type:alpha" maskUnits="userSpaceOnUse" x="5" y="5" width="22" height="22">
<rect x="5.81824" y="5.81934" width="20.3636" height="20.3636" fill="#D9D9D9"/>
</mask>
<g mask="url(#mask0_282_1293)">
<path d="M13.6666 24.4873L13.3272 21.7721C13.1434 21.7014 12.9701 21.6166 12.8075 21.5176C12.6449 21.4186 12.4858 21.3125 12.3302 21.1994L9.80599 22.26L7.47266 18.2297L9.6575 16.5752C9.64336 16.4762 9.63629 16.3807 9.63629 16.2888V15.7161C9.63629 15.6241 9.64336 15.5287 9.6575 15.4297L7.47266 13.7752L9.80599 9.74485L12.3302 10.8055C12.4858 10.6923 12.6484 10.5863 12.8181 10.4873C12.9878 10.3883 13.1575 10.3034 13.3272 10.2327L13.6666 7.51758H18.3333L18.6727 10.2327C18.8565 10.3034 19.0297 10.3883 19.1924 10.4873C19.355 10.5863 19.5141 10.6923 19.6696 10.8055L22.1939 9.74485L24.5272 13.7752L22.3424 15.4297C22.3565 15.5287 22.3636 15.6241 22.3636 15.7161V16.2888C22.3636 16.3807 22.3494 16.4762 22.3211 16.5752L24.506 18.2297L22.1727 22.26L19.6696 21.1994C19.5141 21.3125 19.3514 21.4186 19.1817 21.5176C19.0121 21.6166 18.8424 21.7014 18.6727 21.7721L18.3333 24.4873H13.6666ZM15.9999 19.3964C16.2403 19.3964 16.4418 19.3151 16.6045 19.1524C16.7671 18.9898 16.8484 18.7883 16.8484 18.5479C16.8484 18.3075 16.7671 18.106 16.6045 17.9433C16.4418 17.7807 16.2403 17.6994 15.9999 17.6994C15.7595 17.6994 15.558 17.7807 15.3954 17.9433C15.2328 18.106 15.1514 18.3075 15.1514 18.5479C15.1514 18.7883 15.2328 18.9898 15.3954 19.1524C15.558 19.3151 15.7595 19.3964 15.9999 19.3964ZM15.1514 16.8509H16.8484V12.6085H15.1514V16.8509Z" fill="#F3F3F3"/>
</g>
</svg>
