<svg width="32" height="32" viewBox="0 0 32 32" fill="none" xmlns="http://www.w3.org/2000/svg">
<mask id="mask0_282_1260" style="mask-type:alpha" maskUnits="userSpaceOnUse" x="5" y="5" width="22" height="22">
<rect x="5.81824" y="5.81934" width="20.3636" height="20.3636" fill="#D9D9D9"/>
</mask>
<g mask="url(#mask0_282_1260)">
<path d="M10.3218 24.0616C9.89868 24.0616 9.53722 23.9118 9.23742 23.6122C8.93777 23.3124 8.78794 22.9509 8.78794 22.5278V13.0265C8.53891 12.8981 8.3352 12.7156 8.17682 12.479C8.01857 12.2424 7.93945 11.9696 7.93945 11.6606V9.47428C7.93945 9.05117 8.08928 8.68971 8.38894 8.38991C8.68874 8.09026 9.05019 7.94043 9.4733 7.94043H22.5268C22.9499 7.94043 23.3114 8.09026 23.6112 8.38991C23.9108 8.68971 24.0607 9.05117 24.0607 9.47428V11.6606C24.0607 11.9696 23.9815 12.2424 23.8233 12.479C23.6649 12.7156 23.4612 12.8981 23.2122 13.0265V22.5278C23.2122 22.9509 23.0624 23.3124 22.7627 23.6122C22.4629 23.9118 22.1014 24.0616 21.6783 24.0616H10.3218ZM9.4733 11.9217H22.5268C22.603 11.9217 22.6656 11.8973 22.7145 11.8483C22.7635 11.7994 22.7879 11.7368 22.7879 11.6606V9.47428C22.7879 9.39806 22.7635 9.33548 22.7145 9.28655C22.6656 9.23762 22.603 9.21316 22.5268 9.21316H9.4733C9.39708 9.21316 9.3345 9.23762 9.28557 9.28655C9.23665 9.33548 9.21218 9.39806 9.21218 9.47428V11.6606C9.21218 11.7368 9.23665 11.7994 9.28557 11.8483C9.3345 11.8973 9.39708 11.9217 9.4733 11.9217ZM13.6177 17.2167H18.3824V16.001H13.6177V17.2167Z" fill="#F3F3F3"/>
</g>
</svg>
