<svg width="32" height="32" viewBox="0 0 32 32" fill="none" xmlns="http://www.w3.org/2000/svg">
<path d="M21.9394 11.1205H20.0303V10.0599C20.0299 9.4412 19.7839 8.84796 19.3464 8.41048C18.9089 7.97299 18.3157 7.72701 17.697 7.72656H14.3031C13.6844 7.72701 13.0911 7.97299 12.6536 8.41048C12.2161 8.84796 11.9702 9.4412 11.9697 10.0599V11.1205H10.0606C9.44193 11.121 8.8487 11.3669 8.41121 11.8044C7.97372 12.2419 7.72774 12.8351 7.72729 13.4538V14.4729C8.43663 15.995 9.97069 17.0599 11.7576 17.0599H13.6667V15.9993C13.6667 15.1805 14.3328 14.5144 15.1515 14.5144H16.8485C17.6673 14.5144 18.3334 15.1805 18.3334 15.9993V17.0599H20.2424C22.0294 17.0599 23.5634 15.9959 24.2728 14.4729V13.4538C24.2723 12.8351 24.0263 12.2419 23.5888 11.8044C23.1513 11.3669 22.5581 11.121 21.9394 11.1205ZM13.2424 10.0599C13.2424 9.47529 13.7184 8.99929 14.3031 8.99929H17.697C18.2816 8.99929 18.7576 9.47529 18.7576 10.0599V11.1205H13.2424V10.0599ZM15.1515 18.7569C15.0953 18.7569 15.0413 18.7345 15.0015 18.6947C14.9618 18.655 14.9394 18.601 14.9394 18.5447V15.9993C14.9394 15.943 14.9618 15.8891 15.0015 15.8493C15.0413 15.8095 15.0953 15.7872 15.1515 15.7872H16.8485C16.9048 15.7872 16.9587 15.8095 16.9985 15.8493C17.0383 15.8891 17.0606 15.943 17.0606 15.9993V18.5447C17.0606 18.601 17.0383 18.655 16.9985 18.6947C16.9587 18.7345 16.9048 18.7569 16.8485 18.7569H15.1515ZM20.2424 18.3326C21.753 18.3332 23.2021 17.7352 24.2728 16.6696V21.9387C24.2723 22.5574 24.0263 23.1506 23.5888 23.5881C23.1513 24.0256 22.5581 24.2716 21.9394 24.272H10.0606C9.44193 24.2716 8.8487 24.0256 8.41121 23.5881C7.97372 23.1506 7.72774 22.5574 7.72729 21.9387V16.6696C8.79769 17.7355 10.247 18.3335 11.7576 18.3326H13.6667V18.5447C13.6667 19.3635 14.3328 20.0296 15.1515 20.0296H16.8485C17.6673 20.0296 18.3334 19.3635 18.3334 18.5447V18.3326H20.2424Z" fill="#F3F3F3"/>
</svg>
