<svg width="48" height="48" viewBox="0 0 48 48" fill="none" xmlns="http://www.w3.org/2000/svg">
<rect width="48" height="48" rx="24" fill="#EED898"/>
<mask id="mask0_522_902" style="mask-type:alpha" maskUnits="userSpaceOnUse" x="14" y="14" width="20" height="20">
<rect x="14" y="14" width="20" height="20" fill="#D9D9D9"/>
</mask>
<g mask="url(#mask0_522_902)">
<path d="M31.0837 20.0099V29.5772C31.0837 29.9982 30.9378 30.3545 30.6462 30.6462C30.3545 30.9378 29.9982 31.0837 29.5772 31.0837H18.4235C18.0025 31.0837 17.6462 30.9378 17.3545 30.6462C17.0628 30.3545 16.917 29.9982 16.917 29.5772V18.4235C16.917 18.0025 17.0628 17.6462 17.3545 17.3545C17.6462 17.0628 18.0025 16.917 18.4235 16.917H27.9907L31.0837 20.0099ZM29.8337 20.542L27.4587 18.167H18.4235C18.3486 18.167 18.2871 18.191 18.2391 18.2391C18.191 18.2871 18.167 18.3486 18.167 18.4235V29.5772C18.167 29.6521 18.191 29.7135 18.2391 29.7616C18.2871 29.8096 18.3486 29.8337 18.4235 29.8337H29.5772C29.6521 29.8337 29.7135 29.8096 29.7616 29.7616C29.8096 29.7135 29.8337 29.6521 29.8337 29.5772V20.542ZM24.0003 28.3914C24.5773 28.3914 25.0687 28.1884 25.4747 27.7824C25.8807 27.3764 26.0837 26.885 26.0837 26.308C26.0837 25.7311 25.8807 25.2396 25.4747 24.8337C25.0687 24.4277 24.5773 24.2247 24.0003 24.2247C23.4234 24.2247 22.9319 24.4277 22.526 24.8337C22.12 25.2396 21.917 25.7311 21.917 26.308C21.917 26.885 22.12 27.3764 22.526 27.7824C22.9319 28.1884 23.4234 28.3914 24.0003 28.3914ZM19.321 22.2374H26.1637V19.321H19.321V22.2374Z" fill="#886A10"/>
</g>
</svg>
