<svg width="241" height="54" viewBox="0 0 241 54" fill="none" xmlns="http://www.w3.org/2000/svg">
<g clip-path="url(#clip0_238_465)">
<path d="M30.081 39.5586V42.6648H14.5455C12.4809 42.6648 11.4449 41.6362 11.4375 39.5791V24.0718H30.081V27.1685H17.652V38.3196C17.652 39.1467 18.0621 39.5597 18.8823 39.5586H30.081Z" fill="black"/>
<path d="M49.9674 39.5586V42.6648H34.4287C32.3662 42.6648 31.3307 41.6362 31.3223 39.5791V24.0718H49.9674V27.1685H37.5384V38.3196C37.5384 39.1467 37.9485 39.5597 38.7686 39.5586H49.9674ZM38.7813 31.5058H49.9674V34.6026H38.7813V31.5058Z" fill="black"/>
<path d="M57.4229 33.3633L51.21 24.0747H57.4229L63.6374 33.3633V24.0747H69.8519V42.6646H63.6453L57.4229 33.3633ZM57.4229 35.2226V42.6646H51.21V25.9293L57.4229 35.2226Z" fill="#FFC107"/>
<path d="M89.7383 24.0718V27.1685H83.5238V42.6648H77.3092V27.1685H71.0947V24.0718H89.7383Z" fill="black"/>
<path d="M109.625 33.3762V27.1685C109.625 25.1397 108.625 24.108 106.624 24.0734L106.386 24.363C106.283 24.4874 106.176 24.6165 106.051 24.744L105.91 24.8857L105.437 25.358C104.953 25.8508 104.454 26.3609 103.938 26.8442C103.872 26.9087 103.801 26.9749 103.729 27.0394C103.543 27.2085 103.346 27.3662 103.14 27.5117C103.336 27.7624 103.433 28.0763 103.41 28.3934V33.3494H98.4389V36.4619H100.092L103.409 42.6569H109.623L106.307 36.4619H106.517C108.582 36.4619 109.618 35.4333 109.625 33.3762ZM103.602 24.0718L103.324 24.3504C102.946 24.7283 102.57 25.1061 102.183 25.4714C101.627 25.9914 100.889 26.2751 100.126 26.2625C99.3632 26.2498 98.6352 25.9418 98.0962 25.4037C97.7246 25.037 97.4598 24.5767 97.3302 24.0718H95.7462C95.7604 24.1662 95.7793 24.2591 95.7983 24.3504C95.9104 24.9391 96.15 25.4963 96.5006 25.9831C96.8511 26.4698 97.304 26.8744 97.8277 27.1685H102.168C102.278 27.1673 102.389 27.1763 102.498 27.1953C102.786 27.0161 103.056 26.81 103.305 26.5797C103.373 26.5183 103.439 26.4553 103.505 26.3924C104.176 25.7626 104.813 25.0951 105.46 24.4402L105.598 24.3016C105.67 24.2276 105.738 24.1442 105.805 24.0718H103.602ZM96.3684 26.8222C95.7618 26.1669 95.3486 25.3573 95.1745 24.4827C95.1413 24.3252 95.1176 24.1993 95.1002 24.0718H90.9814V42.6648H97.196V27.518C96.8959 27.3189 96.6203 27.0853 96.3747 26.8222H96.3684ZM97.9903 24.0718C97.9955 24.0933 98.0024 24.1143 98.0109 24.1348C98.1235 24.4438 98.3037 24.7239 98.5384 24.955C98.9758 25.3895 99.5681 25.6334 100.186 25.6335C100.474 25.6348 100.76 25.5814 101.029 25.4761C101.296 25.3707 101.541 25.2152 101.749 25.018C102.065 24.7125 102.395 24.3882 102.709 24.0734L97.9903 24.0718Z" fill="black"/>
<path d="M120.816 24.0718C122.886 24.0718 124.336 25.3108 125.166 27.7888L130.134 42.6648H123.918L122.887 39.5665H118.735L119.779 36.4697H121.843L120.185 31.5058L116.461 42.6648H110.246L116.461 24.0718H120.816Z" fill="black"/>
<path d="M149.401 39.5586V42.6648H133.86C131.798 42.6648 130.762 41.6362 130.754 39.5791V24.0718H136.968V38.3196C136.968 39.1467 137.378 39.5597 138.199 39.5586H149.401Z" fill="black"/>
<path d="M181.712 39.5586V42.6648H166.176C164.113 42.6648 163.077 41.6362 163.068 39.5791V24.0718H169.283V38.3196C169.283 39.1467 169.693 39.5597 170.513 39.5586H181.712Z" fill="#FFC107"/>
<path d="M182.955 42.6648V24.0718H189.17V42.6648H182.955Z" fill="#FFC107"/>
<path d="M196.622 33.3633L190.407 24.0747H196.622L202.836 33.3633V24.0747H209.051V42.6646H202.836L196.622 33.3633ZM196.622 35.2226V42.6646H190.407V25.9293L196.622 35.2226Z" fill="#FFC107"/>
<path d="M229.563 42.6648H223.349L216.521 36.1643V42.6648H210.299V24.0718H216.521V30.2668L229.563 42.6648ZM217.295 29.73L223.349 24.0797H229.563L220.365 32.6661L217.295 29.73Z" fill="#FFC107"/>
<path d="M22.5668 51.1991L23.1802 51.354C23.0516 51.8578 22.8197 52.2425 22.4846 52.5081C22.1516 52.7715 21.7437 52.9033 21.261 52.9033C20.7615 52.9033 20.3547 52.8021 20.0406 52.5997C19.7287 52.3953 19.4905 52.1002 19.3261 51.7145C19.1638 51.3287 19.0826 50.9146 19.0826 50.4719C19.0826 49.9893 19.1743 49.5688 19.3577 49.2104C19.5432 48.85 19.8056 48.577 20.145 48.3916C20.4864 48.204 20.8616 48.1102 21.2705 48.1102C21.7342 48.1102 22.1242 48.2282 22.4403 48.4643C22.7565 48.7003 22.9768 49.0323 23.1011 49.4602L22.4973 49.6025C22.3898 49.2652 22.2338 49.0197 22.0293 48.8658C21.8249 48.7119 21.5677 48.635 21.2579 48.635C20.9017 48.635 20.6034 48.7204 20.3631 48.8911C20.1249 49.0618 19.9574 49.2916 19.8604 49.5803C19.7635 49.867 19.715 50.1631 19.715 50.4688C19.715 50.8629 19.7719 51.2076 19.8857 51.5026C20.0016 51.7956 20.1808 52.0148 20.4232 52.1603C20.6656 52.3057 20.928 52.3784 21.2105 52.3784C21.554 52.3784 21.8449 52.2794 22.0831 52.0812C22.3213 51.8831 22.4825 51.5891 22.5668 51.1991ZM23.6544 51.1454C23.6544 50.5236 23.8273 50.063 24.1729 49.7637C24.4617 49.515 24.8137 49.3906 25.2289 49.3906C25.6905 49.3906 26.0678 49.5424 26.3608 49.8459C26.6538 50.1473 26.8003 50.5647 26.8003 51.0979C26.8003 51.53 26.7349 51.8704 26.6043 52.1192C26.4757 52.3658 26.287 52.5576 26.0383 52.6946C25.7917 52.8316 25.5219 52.9001 25.2289 52.9001C24.7589 52.9001 24.3784 52.7494 24.0876 52.448C23.7988 52.1466 23.6544 51.7124 23.6544 51.1454ZM24.2393 51.1454C24.2393 51.5754 24.3331 51.8978 24.5207 52.1128C24.7083 52.3257 24.9444 52.4322 25.2289 52.4322C25.5114 52.4322 25.7464 52.3247 25.934 52.1097C26.1216 51.8947 26.2154 51.5669 26.2154 51.1264C26.2154 50.7112 26.1205 50.3971 25.9308 50.1842C25.7432 49.9692 25.5093 49.8617 25.2289 49.8617C24.9444 49.8617 24.7083 49.9682 24.5207 50.1811C24.3331 50.3939 24.2393 50.7154 24.2393 51.1454ZM27.4706 52.8242V49.4665H27.9827V49.9439C28.2294 49.5751 28.5856 49.3906 29.0514 49.3906C29.2537 49.3906 29.4392 49.4275 29.6078 49.5013C29.7786 49.573 29.9061 49.6678 29.9904 49.7859C30.0747 49.9039 30.1337 50.0441 30.1675 50.2064C30.1885 50.3117 30.1991 50.4962 30.1991 50.7596V52.8242H29.63V50.7818C29.63 50.5499 29.6078 50.3771 29.5636 50.2633C29.5193 50.1473 29.4403 50.0557 29.3265 49.9882C29.2147 49.9186 29.083 49.8839 28.9312 49.8839C28.6889 49.8839 28.4791 49.9608 28.3021 50.1147C28.1271 50.2685 28.0397 50.5605 28.0397 50.9905V52.8242H27.4706ZM32.3174 52.3152L32.3996 52.8179C32.2394 52.8516 32.0961 52.8685 31.9696 52.8685C31.7631 52.8685 31.6029 52.8358 31.489 52.7705C31.3752 52.7051 31.2951 52.6198 31.2488 52.5144C31.2024 52.4069 31.1792 52.1824 31.1792 51.8409V49.9092H30.7619V49.4665H31.1792V48.635L31.7451 48.2935V49.4665H32.3174V49.9092H31.7451V51.8726C31.7451 52.0349 31.7546 52.1392 31.7736 52.1856C31.7947 52.2319 31.8273 52.2688 31.8716 52.2962C31.918 52.3236 31.9833 52.3373 32.0676 52.3373C32.1309 52.3373 32.2141 52.3299 32.3174 52.3152ZM32.8707 52.8242V49.4665H33.3829V49.9756C33.5136 49.7374 33.6337 49.5803 33.7433 49.5045C33.855 49.4286 33.9773 49.3906 34.1101 49.3906C34.3019 49.3906 34.4968 49.4518 34.695 49.574L34.4989 50.102C34.3598 50.0198 34.2207 49.9787 34.0816 49.9787C33.9572 49.9787 33.8455 50.0167 33.7465 50.0925C33.6474 50.1663 33.5768 50.2696 33.5346 50.4024C33.4714 50.6047 33.4398 50.826 33.4398 51.0663V52.8242H32.8707ZM37.2243 52.41C37.0135 52.5892 36.8101 52.7157 36.6141 52.7894C36.4202 52.8632 36.2115 52.9001 35.9881 52.9001C35.6192 52.9001 35.3357 52.8105 35.1376 52.6314C34.9395 52.4501 34.8404 52.2193 34.8404 51.939C34.8404 51.7745 34.8773 51.6249 34.9511 51.49C35.0269 51.353 35.125 51.2434 35.2451 51.1612C35.3674 51.079 35.5044 51.0168 35.6561 50.9746C35.7678 50.9451 35.9365 50.9167 36.162 50.8893C36.6215 50.8345 36.9598 50.7691 37.1769 50.6933C37.179 50.6153 37.18 50.5657 37.18 50.5447C37.18 50.3128 37.1263 50.1494 37.0188 50.0546C36.8734 49.926 36.6573 49.8617 36.3707 49.8617C36.103 49.8617 35.9048 49.9092 35.7763 50.004C35.6498 50.0968 35.556 50.2622 35.4949 50.5004L34.9384 50.4245C34.989 50.1863 35.0723 49.9945 35.1882 49.8491C35.3041 49.7015 35.4717 49.5888 35.6909 49.5108C35.9101 49.4307 36.1641 49.3906 36.4529 49.3906C36.7395 49.3906 36.9724 49.4244 37.1516 49.4918C37.3308 49.5593 37.4625 49.6446 37.5468 49.7479C37.6311 49.8491 37.6901 49.9777 37.7239 50.1336C37.7428 50.2306 37.7523 50.4055 37.7523 50.6585V51.4173C37.7523 51.9463 37.7639 52.2815 37.7871 52.4227C37.8124 52.5618 37.8609 52.6956 37.9325 52.8242H37.3381C37.2791 52.7062 37.2412 52.5681 37.2243 52.41ZM37.1769 51.139C36.9703 51.2234 36.6605 51.295 36.2474 51.354C36.0134 51.3878 35.8479 51.4257 35.751 51.4679C35.654 51.51 35.5792 51.5722 35.5265 51.6544C35.4738 51.7345 35.4474 51.8241 35.4474 51.9231C35.4474 52.0749 35.5044 52.2014 35.6182 52.3025C35.7341 52.4037 35.9027 52.4543 36.124 52.4543C36.3433 52.4543 36.5382 52.4069 36.709 52.312C36.8797 52.2151 37.0051 52.0833 37.0852 51.9168C37.1463 51.7882 37.1769 51.5985 37.1769 51.3477V51.139ZM40.8286 51.5943L41.3882 51.667C41.3271 52.0528 41.1701 52.3552 40.9171 52.5744C40.6663 52.7915 40.3575 52.9001 39.9908 52.9001C39.5313 52.9001 39.1614 52.7504 38.881 52.4511C38.6028 52.1497 38.4637 51.7187 38.4637 51.158C38.4637 50.7955 38.5238 50.4783 38.6439 50.2064C38.764 49.9345 38.9464 49.7311 39.1909 49.5962C39.4375 49.4591 39.7052 49.3906 39.9939 49.3906C40.3586 49.3906 40.6568 49.4834 40.8887 49.6689C41.1205 49.8522 41.2691 50.1136 41.3345 50.453L40.7812 50.5383C40.7285 50.3128 40.6347 50.1431 40.4998 50.0293C40.367 49.9155 40.2058 49.8586 40.0161 49.8586C39.7294 49.8586 39.4965 49.9619 39.3173 50.1684C39.1382 50.3729 39.0486 50.6975 39.0486 51.1422C39.0486 51.5933 39.135 51.921 39.3078 52.1255C39.4807 52.3299 39.7062 52.4322 39.9844 52.4322C40.2079 52.4322 40.3944 52.3637 40.5441 52.2267C40.6937 52.0897 40.7886 51.8789 40.8286 51.5943ZM43.1177 52.3152L43.1999 52.8179C43.0397 52.8516 42.8963 52.8685 42.7699 52.8685C42.5633 52.8685 42.4031 52.8358 42.2893 52.7705C42.1755 52.7051 42.0954 52.6198 42.049 52.5144C42.0026 52.4069 41.9795 52.1824 41.9795 51.8409V49.9092H41.5621V49.4665H41.9795V48.635L42.5454 48.2935V49.4665H43.1177V49.9092H42.5454V51.8726C42.5454 52.0349 42.5549 52.1392 42.5739 52.1856C42.5949 52.2319 42.6276 52.2688 42.6719 52.2962C42.7182 52.3236 42.7836 52.3373 42.8679 52.3373C42.9311 52.3373 43.0144 52.3299 43.1177 52.3152ZM43.6804 48.8437V48.1892H44.2495V48.8437H43.6804ZM43.6804 52.8242V49.4665H44.2495V52.8242H43.6804ZM45.119 52.8242V49.4665H45.6312V49.9439C45.8778 49.5751 46.234 49.3906 46.6998 49.3906C46.9022 49.3906 47.0877 49.4275 47.2563 49.5013C47.427 49.573 47.5545 49.6678 47.6388 49.7859C47.7232 49.9039 47.7822 50.0441 47.8159 50.2064C47.837 50.3117 47.8475 50.4962 47.8475 50.7596V52.8242H47.2784V50.7818C47.2784 50.5499 47.2563 50.3771 47.212 50.2633C47.1678 50.1473 47.0887 50.0557 46.9749 49.9882C46.8632 49.9186 46.7314 49.8839 46.5797 49.8839C46.3373 49.8839 46.1276 49.9608 45.9505 50.1147C45.7756 50.2685 45.6881 50.5605 45.6881 50.9905V52.8242H45.119ZM48.619 53.1024L49.1723 53.1846C49.1954 53.3554 49.2597 53.4797 49.3651 53.5577C49.5063 53.6631 49.6992 53.7158 49.9437 53.7158C50.2072 53.7158 50.4106 53.6631 50.5539 53.5577C50.6972 53.4523 50.7942 53.3048 50.8448 53.1151C50.8743 52.9992 50.888 52.7557 50.8859 52.3847C50.6372 52.6777 50.3273 52.8242 49.9563 52.8242C49.4947 52.8242 49.1375 52.6577 48.8845 52.3247C48.6316 51.9916 48.5051 51.5922 48.5051 51.1264C48.5051 50.806 48.5631 50.5109 48.679 50.2411C48.795 49.9692 48.9625 49.7595 49.1817 49.612C49.4031 49.4644 49.6623 49.3906 49.9595 49.3906C50.3558 49.3906 50.6825 49.5508 50.9396 49.8712V49.4665H51.4645V52.3689C51.4645 52.8917 51.4107 53.2616 51.3032 53.4787C51.1978 53.6979 51.0292 53.8707 50.7974 53.9972C50.5676 54.1237 50.2841 54.1869 49.9469 54.1869C49.5464 54.1869 49.2228 54.0963 48.9762 53.915C48.7296 53.7358 48.6105 53.465 48.619 53.1024ZM49.0901 51.0853C49.0901 51.5258 49.1775 51.8473 49.3525 52.0496C49.5274 52.252 49.7466 52.3531 50.0101 52.3531C50.2715 52.3531 50.4907 52.253 50.6677 52.0528C50.8448 51.8504 50.9333 51.5343 50.9333 51.1043C50.9333 50.6933 50.8416 50.3834 50.6582 50.1747C50.477 49.9661 50.2578 49.8617 50.0006 49.8617C49.7477 49.8617 49.5327 49.965 49.3556 50.1716C49.1786 50.376 49.0901 50.6806 49.0901 51.0853ZM56.3208 52.41C56.11 52.5892 55.9066 52.7157 55.7106 52.7894C55.5167 52.8632 55.308 52.9001 55.0846 52.9001C54.7157 52.9001 54.4322 52.8105 54.2341 52.6314C54.036 52.4501 53.9369 52.2193 53.9369 51.939C53.9369 51.7745 53.9738 51.6249 54.0475 51.49C54.1234 51.353 54.2214 51.2434 54.3416 51.1612C54.4638 51.079 54.6008 51.0168 54.7526 50.9746C54.8643 50.9451 55.0329 50.9167 55.2585 50.8893C55.718 50.8345 56.0563 50.7691 56.2734 50.6933C56.2755 50.6153 56.2765 50.5657 56.2765 50.5447C56.2765 50.3128 56.2228 50.1494 56.1153 50.0546C55.9698 49.926 55.7538 49.8617 55.4671 49.8617C55.1995 49.8617 55.0013 49.9092 54.8727 50.004C54.7463 50.0968 54.6525 50.2622 54.5914 50.5004L54.0349 50.4245C54.0855 50.1863 54.1687 49.9945 54.2847 49.8491C54.4006 49.7015 54.5682 49.5888 54.7874 49.5108C55.0066 49.4307 55.2606 49.3906 55.5493 49.3906C55.836 49.3906 56.0689 49.4244 56.2481 49.4918C56.4272 49.5593 56.559 49.6446 56.6433 49.7479C56.7276 49.8491 56.7866 49.9777 56.8203 50.1336C56.8393 50.2306 56.8488 50.4055 56.8488 50.6585V51.4173C56.8488 51.9463 56.8604 52.2815 56.8836 52.4227C56.9089 52.5618 56.9573 52.6956 57.029 52.8242H56.4346C56.3756 52.7062 56.3377 52.5681 56.3208 52.41ZM56.2734 51.139C56.0668 51.2234 55.757 51.295 55.3438 51.354C55.1099 51.3878 54.9444 51.4257 54.8475 51.4679C54.7505 51.51 54.6757 51.5722 54.623 51.6544C54.5703 51.7345 54.5439 51.8241 54.5439 51.9231C54.5439 52.0749 54.6008 52.2014 54.7147 52.3025C54.8306 52.4037 54.9992 52.4543 55.2205 52.4543C55.4397 52.4543 55.6347 52.4069 55.8054 52.312C55.9762 52.2151 56.1016 52.0833 56.1817 51.9168C56.2428 51.7882 56.2734 51.5985 56.2734 51.3477V51.139ZM57.7341 52.8242V49.4665H58.2462V49.9439C58.4929 49.5751 58.8491 49.3906 59.3149 49.3906C59.5172 49.3906 59.7027 49.4275 59.8713 49.5013C60.0421 49.573 60.1696 49.6678 60.2539 49.7859C60.3382 49.9039 60.3972 50.0441 60.431 50.2064C60.452 50.3117 60.4626 50.4962 60.4626 50.7596V52.8242H59.8935V50.7818C59.8935 50.5499 59.8713 50.3771 59.8271 50.2633C59.7828 50.1473 59.7038 50.0557 59.59 49.9882C59.4782 49.9186 59.3465 49.8839 59.1947 49.8839C58.9523 49.8839 58.7426 49.9608 58.5656 50.1147C58.3906 50.2685 58.3032 50.5605 58.3032 50.9905V52.8242H57.7341ZM63.5167 52.8242V52.4006C63.3039 52.7336 62.9909 52.9001 62.5777 52.9001C62.31 52.9001 62.0634 52.8263 61.8379 52.6788C61.6145 52.5312 61.4406 52.3257 61.3162 52.0623C61.194 51.7967 61.1329 51.4921 61.1329 51.1485C61.1329 50.8134 61.1887 50.5099 61.3004 50.238C61.4121 49.964 61.5797 49.7542 61.8031 49.6088C62.0265 49.4634 62.2763 49.3906 62.5524 49.3906C62.7548 49.3906 62.935 49.4339 63.0931 49.5203C63.2512 49.6046 63.3797 49.7152 63.4788 49.8522V48.1892H64.0447V52.8242H63.5167ZM61.7178 51.1485C61.7178 51.5785 61.8084 51.9 61.9897 52.1128C62.1709 52.3257 62.3849 52.4322 62.6315 52.4322C62.8802 52.4322 63.091 52.331 63.2638 52.1287C63.4388 51.9242 63.5262 51.6133 63.5262 51.196C63.5262 50.7365 63.4377 50.3992 63.2607 50.1842C63.0836 49.9692 62.8654 49.8617 62.6062 49.8617C62.3533 49.8617 62.1414 49.965 61.9707 50.1716C61.8021 50.3781 61.7178 50.7038 61.7178 51.1485ZM66.7986 52.8242V48.1892H67.7218L68.8189 51.471C68.92 51.7767 68.9938 52.0053 69.0402 52.1571C69.0929 51.9885 69.1751 51.7408 69.2868 51.4141L70.3965 48.1892H71.2217V52.8242H70.6305V48.9449L69.2836 52.8242H68.7303L67.3898 48.8785V52.8242H66.7986ZM74.3297 52.41C74.1189 52.5892 73.9155 52.7157 73.7195 52.7894C73.5255 52.8632 73.3169 52.9001 73.0934 52.9001C72.7246 52.9001 72.4411 52.8105 72.243 52.6314C72.0448 52.4501 71.9458 52.2193 71.9458 51.939C71.9458 51.7745 71.9826 51.6249 72.0564 51.49C72.1323 51.353 72.2303 51.2434 72.3505 51.1612C72.4727 51.079 72.6097 51.0168 72.7615 50.9746C72.8732 50.9451 73.0418 50.9167 73.2673 50.8893C73.7268 50.8345 74.0651 50.7691 74.2822 50.6933C74.2843 50.6153 74.2854 50.5657 74.2854 50.5447C74.2854 50.3128 74.2316 50.1494 74.1241 50.0546C73.9787 49.926 73.7627 49.8617 73.476 49.8617C73.2083 49.8617 73.0102 49.9092 72.8816 50.004C72.7551 50.0968 72.6614 50.2622 72.6002 50.5004L72.0438 50.4245C72.0944 50.1863 72.1776 49.9945 72.2935 49.8491C72.4095 49.7015 72.577 49.5888 72.7962 49.5108C73.0155 49.4307 73.2694 49.3906 73.5582 49.3906C73.8449 49.3906 74.0778 49.4244 74.2569 49.4918C74.4361 49.5593 74.5678 49.6446 74.6521 49.7479C74.7365 49.8491 74.7955 49.9777 74.8292 50.1336C74.8482 50.2306 74.8577 50.4055 74.8577 50.6585V51.4173C74.8577 51.9463 74.8692 52.2815 74.8924 52.4227C74.9177 52.5618 74.9662 52.6956 75.0379 52.8242H74.4435C74.3845 52.7062 74.3465 52.5681 74.3297 52.41ZM74.2822 51.139C74.0757 51.2234 73.7658 51.295 73.3527 51.354C73.1187 51.3878 72.9533 51.4257 72.8563 51.4679C72.7594 51.51 72.6845 51.5722 72.6318 51.6544C72.5791 51.7345 72.5528 51.8241 72.5528 51.9231C72.5528 52.0749 72.6097 52.2014 72.7235 52.3025C72.8395 52.4037 73.0081 52.4543 73.2294 52.4543C73.4486 52.4543 73.6436 52.4069 73.8143 52.312C73.985 52.2151 74.1104 52.0833 74.1905 51.9168C74.2517 51.7882 74.2822 51.5985 74.2822 51.3477V51.139ZM75.7461 48.8437V48.1892H76.3152V48.8437H75.7461ZM75.7461 52.8242V49.4665H76.3152V52.8242H75.7461ZM77.1846 52.8242V49.4665H77.6968V49.9439C77.9434 49.5751 78.2997 49.3906 78.7655 49.3906C78.9678 49.3906 79.1533 49.4275 79.3219 49.5013C79.4927 49.573 79.6202 49.6678 79.7045 49.7859C79.7888 49.9039 79.8478 50.0441 79.8815 50.2064C79.9026 50.3117 79.9132 50.4962 79.9132 50.7596V52.8242H79.3441V50.7818C79.3441 50.5499 79.3219 50.3771 79.2777 50.2633C79.2334 50.1473 79.1544 50.0557 79.0405 49.9882C78.9288 49.9186 78.7971 49.8839 78.6453 49.8839C78.4029 49.8839 78.1932 49.9608 78.0162 50.1147C77.8412 50.2685 77.7537 50.5605 77.7537 50.9905V52.8242H77.1846ZM82.0315 52.3152L82.1137 52.8179C81.9535 52.8516 81.8102 52.8685 81.6837 52.8685C81.4771 52.8685 81.3169 52.8358 81.2031 52.7705C81.0893 52.7051 81.0092 52.6198 80.9628 52.5144C80.9165 52.4069 80.8933 52.1824 80.8933 51.8409V49.9092H80.4759V49.4665H80.8933V48.635L81.4592 48.2935V49.4665H82.0315V49.9092H81.4592V51.8726C81.4592 52.0349 81.4687 52.1392 81.4877 52.1856C81.5088 52.2319 81.5414 52.2688 81.5857 52.2962C81.6321 52.3236 81.6974 52.3373 81.7817 52.3373C81.8449 52.3373 81.9282 52.3299 82.0315 52.3152ZM84.8896 51.7429L85.4777 51.8156C85.385 52.1592 85.2132 52.4258 84.9624 52.6155C84.7115 52.8052 84.3911 52.9001 84.0012 52.9001C83.5101 52.9001 83.1202 52.7494 82.8314 52.448C82.5447 52.1445 82.4014 51.7197 82.4014 51.1738C82.4014 50.6089 82.5468 50.1705 82.8377 49.8586C83.1286 49.5466 83.5059 49.3906 83.9696 49.3906C84.4185 49.3906 84.7853 49.5435 85.0699 49.8491C85.3544 50.1547 85.4967 50.5847 85.4967 51.139C85.4967 51.1728 85.4956 51.2234 85.4935 51.2908H82.9895C83.0105 51.6597 83.1149 51.9421 83.3025 52.1381C83.4901 52.3342 83.724 52.4322 84.0044 52.4322C84.213 52.4322 84.3911 52.3774 84.5387 52.2678C84.6862 52.1582 84.8032 51.9832 84.8896 51.7429ZM83.0211 50.8229H84.896C84.8707 50.5404 84.799 50.3286 84.681 50.1874C84.4997 49.9682 84.2647 49.8586 83.9759 49.8586C83.7145 49.8586 83.4943 49.946 83.3151 50.121C83.1381 50.2959 83.0401 50.5299 83.0211 50.8229ZM86.1954 52.8242V49.4665H86.7076V49.9439C86.9542 49.5751 87.3104 49.3906 87.7762 49.3906C87.9786 49.3906 88.1641 49.4275 88.3327 49.5013C88.5034 49.573 88.6309 49.6678 88.7153 49.7859C88.7996 49.9039 88.8586 50.0441 88.8923 50.2064C88.9134 50.3117 88.9239 50.4962 88.9239 50.7596V52.8242H88.3548V50.7818C88.3548 50.5499 88.3327 50.3771 88.2884 50.2633C88.2442 50.1473 88.1651 50.0557 88.0513 49.9882C87.9396 49.9186 87.8079 49.8839 87.6561 49.8839C87.4137 49.8839 87.204 49.9608 87.0269 50.1147C86.852 50.2685 86.7645 50.5605 86.7645 50.9905V52.8242H86.1954ZM91.9907 52.41C91.78 52.5892 91.5766 52.7157 91.3805 52.7894C91.1866 52.8632 90.978 52.9001 90.7545 52.9001C90.3857 52.9001 90.1022 52.8105 89.904 52.6314C89.7059 52.4501 89.6068 52.2193 89.6068 51.939C89.6068 51.7745 89.6437 51.6249 89.7175 51.49C89.7934 51.353 89.8914 51.2434 90.0115 51.1612C90.1338 51.079 90.2708 51.0168 90.4226 50.9746C90.5343 50.9451 90.7029 50.9167 90.9284 50.8893C91.3879 50.8345 91.7262 50.7691 91.9433 50.6933C91.9454 50.6153 91.9465 50.5657 91.9465 50.5447C91.9465 50.3128 91.8927 50.1494 91.7852 50.0546C91.6398 49.926 91.4237 49.8617 91.1371 49.8617C90.8694 49.8617 90.6713 49.9092 90.5427 50.004C90.4162 50.0968 90.3224 50.2622 90.2613 50.5004L89.7049 50.4245C89.7554 50.1863 89.8387 49.9945 89.9546 49.8491C90.0706 49.7015 90.2381 49.5888 90.4573 49.5108C90.6765 49.4307 90.9305 49.3906 91.2193 49.3906C91.506 49.3906 91.7389 49.4244 91.918 49.4918C92.0972 49.5593 92.2289 49.6446 92.3132 49.7479C92.3975 49.8491 92.4566 49.9777 92.4903 50.1336C92.5093 50.2306 92.5187 50.4055 92.5187 50.6585V51.4173C92.5187 51.9463 92.5303 52.2815 92.5535 52.4227C92.5788 52.5618 92.6273 52.6956 92.699 52.8242H92.1046C92.0455 52.7062 92.0076 52.5681 91.9907 52.41ZM91.9433 51.139C91.7368 51.2234 91.4269 51.295 91.0138 51.354C90.7798 51.3878 90.6144 51.4257 90.5174 51.4679C90.4204 51.51 90.3456 51.5722 90.2929 51.6544C90.2402 51.7345 90.2139 51.8241 90.2139 51.9231C90.2139 52.0749 90.2708 52.2014 90.3846 52.3025C90.5005 52.4037 90.6692 52.4543 90.8905 52.4543C91.1097 52.4543 91.3047 52.4069 91.4754 52.312C91.6461 52.2151 91.7715 52.0833 91.8516 51.9168C91.9128 51.7882 91.9433 51.5985 91.9433 51.3477V51.139ZM93.404 52.8242V49.4665H93.9162V49.9439C94.1628 49.5751 94.519 49.3906 94.9848 49.3906C95.1872 49.3906 95.3727 49.4275 95.5413 49.5013C95.712 49.573 95.8395 49.6678 95.9239 49.7859C96.0082 49.9039 96.0672 50.0441 96.1009 50.2064C96.122 50.3117 96.1325 50.4962 96.1325 50.7596V52.8242H95.5634V50.7818C95.5634 50.5499 95.5413 50.3771 95.497 50.2633C95.4528 50.1473 95.3737 50.0557 95.2599 49.9882C95.1482 49.9186 95.0165 49.8839 94.8647 49.8839C94.6223 49.8839 94.4126 49.9608 94.2355 50.1147C94.0606 50.2685 93.9731 50.5605 93.9731 50.9905V52.8242H93.404ZM99.1993 51.5943L99.759 51.667C99.6978 52.0528 99.5408 52.3552 99.2879 52.5744C99.037 52.7915 98.7283 52.9001 98.3615 52.9001C97.902 52.9001 97.5321 52.7504 97.2518 52.4511C96.9735 52.1497 96.8344 51.7187 96.8344 51.158C96.8344 50.7955 96.8945 50.4783 97.0146 50.2064C97.1348 49.9345 97.3171 49.7311 97.5616 49.5962C97.8082 49.4591 98.0759 49.3906 98.3647 49.3906C98.7293 49.3906 99.0276 49.4834 99.2594 49.6689C99.4913 49.8522 99.6399 50.1136 99.7052 50.453L99.1519 50.5383C99.0992 50.3128 99.0054 50.1431 98.8705 50.0293C98.7377 49.9155 98.5765 49.8586 98.3868 49.8586C98.1001 49.8586 97.8672 49.9619 97.6881 50.1684C97.5089 50.3729 97.4193 50.6975 97.4193 51.1422C97.4193 51.5933 97.5057 51.921 97.6786 52.1255C97.8514 52.3299 98.077 52.4322 98.3552 52.4322C98.5786 52.4322 98.7651 52.3637 98.9148 52.2267C99.0644 52.0897 99.1593 51.8789 99.1993 51.5943ZM102.544 51.7429L103.132 51.8156C103.04 52.1592 102.868 52.4258 102.617 52.6155C102.366 52.8052 102.046 52.9001 101.656 52.9001C101.165 52.9001 100.775 52.7494 100.486 52.448C100.199 52.1445 100.056 51.7197 100.056 51.1738C100.056 50.6089 100.202 50.1705 100.492 49.8586C100.783 49.5466 101.161 49.3906 101.624 49.3906C102.073 49.3906 102.44 49.5435 102.725 49.8491C103.009 50.1547 103.151 50.5847 103.151 51.139C103.151 51.1728 103.15 51.2234 103.148 51.2908H100.644C100.665 51.6597 100.77 51.9421 100.957 52.1381C101.145 52.3342 101.379 52.4322 101.659 52.4322C101.868 52.4322 102.046 52.3774 102.193 52.2678C102.341 52.1582 102.458 51.9832 102.544 51.7429ZM100.676 50.8229H102.551C102.525 50.5404 102.454 50.3286 102.336 50.1874C102.154 49.9682 101.919 49.8586 101.631 49.8586C101.369 49.8586 101.149 49.946 100.97 50.121C100.793 50.2959 100.695 50.5299 100.676 50.8229ZM105.7 52.8242V48.1892H106.313V52.2772H108.596V52.8242H105.7ZM109.418 52.8242V52.1761H110.066V52.8242H109.418ZM111.106 52.8242V48.1892H111.72V52.2772H114.002V52.8242H111.106ZM114.824 52.8242V52.1761H115.472V52.8242H114.824ZM119.845 51.1991L120.458 51.354C120.33 51.8578 120.098 52.2425 119.763 52.5081C119.43 52.7715 119.022 52.9033 118.539 52.9033C118.04 52.9033 117.633 52.8021 117.319 52.5997C117.007 52.3953 116.769 52.1002 116.604 51.7145C116.442 51.3287 116.361 50.9146 116.361 50.4719C116.361 49.9893 116.453 49.5688 116.636 49.2104C116.821 48.85 117.084 48.577 117.423 48.3916C117.765 48.204 118.14 48.1102 118.549 48.1102C119.012 48.1102 119.402 48.2282 119.719 48.4643C120.035 48.7003 120.255 49.0323 120.379 49.4602L119.775 49.6025C119.668 49.2652 119.512 49.0197 119.308 48.8658C119.103 48.7119 118.846 48.635 118.536 48.635C118.18 48.635 117.882 48.7204 117.641 48.8911C117.403 49.0618 117.236 49.2916 117.139 49.5803C117.042 49.867 116.993 50.1631 116.993 50.4688C116.993 50.8629 117.05 51.2076 117.164 51.5026C117.28 51.7956 117.459 52.0148 117.701 52.1603C117.944 52.3057 118.206 52.3784 118.489 52.3784C118.832 52.3784 119.123 52.2794 119.361 52.0812C119.599 51.8831 119.761 51.5891 119.845 51.1991ZM122.725 51.4331V50.8608H124.474V51.4331H122.725ZM126.769 51.3351L127.348 51.2845C127.375 51.5163 127.438 51.7071 127.537 51.8567C127.639 52.0043 127.795 52.1244 128.005 52.2172C128.216 52.3078 128.453 52.3531 128.717 52.3531C128.951 52.3531 129.157 52.3184 129.336 52.2488C129.516 52.1792 129.648 52.0844 129.735 51.9642C129.823 51.842 129.868 51.7092 129.868 51.5659C129.868 51.4204 129.825 51.294 129.741 51.1865C129.657 51.0769 129.518 50.9852 129.324 50.9114C129.199 50.8629 128.924 50.7881 128.499 50.6869C128.073 50.5836 127.775 50.4867 127.604 50.3961C127.382 50.2801 127.217 50.1368 127.107 49.9661C127 49.7932 126.946 49.6004 126.946 49.3875C126.946 49.1535 127.013 48.9354 127.145 48.733C127.278 48.5286 127.472 48.3736 127.727 48.2683C127.982 48.1629 128.266 48.1102 128.578 48.1102C128.921 48.1102 129.224 48.166 129.485 48.2777C129.748 48.3873 129.951 48.5496 130.092 48.7646C130.233 48.9796 130.309 49.2231 130.32 49.495L129.732 49.5392C129.7 49.2463 129.592 49.0249 129.409 48.8753C129.228 48.7256 128.959 48.6508 128.603 48.6508C128.232 48.6508 127.961 48.7193 127.79 48.8563C127.622 48.9912 127.537 49.1546 127.537 49.3464C127.537 49.5129 127.597 49.6499 127.718 49.7574C127.836 49.8649 128.143 49.9756 128.641 50.0894C129.14 50.2011 129.483 50.2991 129.668 50.3834C129.938 50.5078 130.137 50.6659 130.266 50.8577C130.394 51.0474 130.459 51.2666 130.459 51.5153C130.459 51.7619 130.388 51.9948 130.247 52.214C130.106 52.4311 129.902 52.6008 129.637 52.723C129.373 52.8432 129.076 52.9033 128.745 52.9033C128.326 52.9033 127.974 52.8421 127.689 52.7199C127.407 52.5976 127.184 52.4143 127.022 52.1698C126.862 51.9231 126.778 51.6449 126.769 51.3351ZM131.385 52.8242V52.1761H132.033V52.8242H131.385ZM133.099 52.8242V48.1892H134.847C135.155 48.1892 135.39 48.204 135.552 48.2335C135.78 48.2714 135.971 48.3441 136.124 48.4516C136.278 48.557 136.402 48.7056 136.494 48.8974C136.589 49.0892 136.637 49.3 136.637 49.5298C136.637 49.9239 136.511 50.258 136.26 50.532C136.01 50.8039 135.556 50.9399 134.901 50.9399H133.712V52.8242H133.099ZM133.712 50.3929H134.91C135.307 50.3929 135.588 50.3191 135.755 50.1716C135.921 50.024 136.004 49.8164 136.004 49.5487C136.004 49.3548 135.955 49.1894 135.856 49.0523C135.759 48.9132 135.63 48.8215 135.47 48.7773C135.367 48.7499 135.176 48.7362 134.898 48.7362H133.712V50.3929ZM136.671 52.8242V52.1761H137.32V52.8242H136.671ZM141.692 51.1991L142.306 51.354C142.177 51.8578 141.945 52.2425 141.61 52.5081C141.277 52.7715 140.869 52.9033 140.386 52.9033C139.887 52.9033 139.48 52.8021 139.166 52.5997C138.854 52.3953 138.616 52.1002 138.451 51.7145C138.289 51.3287 138.208 50.9146 138.208 50.4719C138.208 49.9893 138.3 49.5688 138.483 49.2104C138.669 48.85 138.931 48.577 139.27 48.3916C139.612 48.204 139.987 48.1102 140.396 48.1102C140.86 48.1102 141.25 48.2282 141.566 48.4643C141.882 48.7003 142.102 49.0323 142.227 49.4602L141.623 49.6025C141.515 49.2652 141.359 49.0197 141.155 48.8658C140.95 48.7119 140.693 48.635 140.383 48.635C140.027 48.635 139.729 48.7204 139.488 48.8911C139.25 49.0618 139.083 49.2916 138.986 49.5803C138.889 49.867 138.84 50.1631 138.84 50.4688C138.84 50.8629 138.897 51.2076 139.011 51.5026C139.127 51.7956 139.306 52.0148 139.549 52.1603C139.791 52.3057 140.053 52.3784 140.336 52.3784C140.679 52.3784 140.97 52.2794 141.208 52.0812C141.447 51.8831 141.608 51.5891 141.692 51.1991Z" fill="black"/>
<path d="M103.601 24.0718H105.812C105.746 24.1505 105.678 24.2292 105.605 24.3017L105.468 24.4402C104.82 25.0951 104.184 25.7627 103.513 26.3924C103.446 26.4554 103.38 26.5183 103.312 26.5797C103.063 26.81 102.793 27.0161 102.505 27.1953C101.321 27.9321 99.994 28.0549 98.5821 27.5196C98.3238 27.4233 98.074 27.3059 97.8351 27.1685C97.3114 26.8744 96.8585 26.4698 96.508 25.9831C96.1574 25.4963 95.9178 24.9392 95.8057 24.3505C95.7867 24.2592 95.7678 24.1663 95.7536 24.0718C95.7536 24.0293 95.7394 23.9852 95.733 23.9411C95.722 23.8671 95.7141 23.7932 95.7062 23.7192C95.5656 22.3259 96.0315 21.1183 97.0218 20.1202C97.7356 19.4013 98.4531 18.686 99.1743 17.9744C99.6827 17.477 100.302 17.1064 100.981 16.8927C101.66 16.679 102.381 16.6282 103.083 16.7445C103.786 16.8608 104.451 17.1409 105.025 17.562C105.598 17.9831 106.064 18.5333 106.384 19.1677C106.407 19.2134 106.428 19.2622 106.456 19.3252C106.242 19.4761 105.993 19.5713 105.732 19.6021C105.471 19.6329 105.207 19.5983 104.962 19.5015C104.794 19.4361 104.643 19.3339 104.52 19.2024C104.26 18.9186 103.947 18.6887 103.598 18.5258C103.249 18.3629 102.871 18.2702 102.486 18.2529C102.101 18.2357 101.716 18.2942 101.354 18.4253C100.992 18.5563 100.659 18.7572 100.375 19.0166C99.5597 19.7739 98.7716 20.5626 98.0057 21.3781C97.6905 21.7191 97.4624 22.1308 97.3409 22.5784C97.2194 23.0259 97.208 23.4961 97.3076 23.949C97.3171 23.9931 97.3281 24.0356 97.3392 24.0797C97.4688 24.5846 97.7336 25.0449 98.1051 25.4116C98.6442 25.9498 99.3722 26.2577 100.135 26.2704C100.898 26.283 101.636 25.9993 102.192 25.4793C102.579 25.114 102.955 24.7362 103.333 24.3583L103.601 24.0718Z" fill="#FFC107"/>
<path d="M103.601 24.0718H105.812C105.746 24.1505 105.678 24.2292 105.605 24.3017L105.468 24.4402C104.82 25.0951 104.184 25.7627 103.513 26.3924C103.446 26.4554 103.38 26.5183 103.312 26.5797C103.063 26.81 102.793 27.0161 102.505 27.1953C101.321 27.9321 99.994 28.0549 98.5821 27.5196C98.3238 27.4233 98.074 27.3059 97.8351 27.1685C97.3114 26.8744 96.8585 26.4698 96.508 25.9831C96.1574 25.4963 95.9178 24.9392 95.8057 24.3505C95.7867 24.2592 95.7678 24.1663 95.7536 24.0718C95.7536 24.0293 95.7394 23.9852 95.733 23.9411C95.722 23.8671 95.7141 23.7932 95.7062 23.7192C95.5656 22.3259 96.0315 21.1183 97.0218 20.1202C97.7356 19.4013 98.4531 18.686 99.1743 17.9744C99.6827 17.477 100.302 17.1064 100.981 16.8927C101.66 16.679 102.381 16.6282 103.083 16.7445C103.786 16.8608 104.451 17.1409 105.025 17.562C105.598 17.9831 106.064 18.5333 106.384 19.1677C106.407 19.2134 106.428 19.2622 106.456 19.3252C106.242 19.4761 105.993 19.5713 105.732 19.6021C105.471 19.6329 105.207 19.5983 104.962 19.5015C104.794 19.4361 104.643 19.3339 104.52 19.2024C104.26 18.9186 103.947 18.6887 103.598 18.5258C103.249 18.3629 102.871 18.2702 102.486 18.2529C102.101 18.2357 101.716 18.2942 101.354 18.4253C100.992 18.5563 100.659 18.7572 100.375 19.0166C99.5597 19.7739 98.7716 20.5626 98.0057 21.3781C97.6905 21.7191 97.4624 22.1308 97.3409 22.5784C97.2194 23.0259 97.208 23.4961 97.3076 23.949C97.3171 23.9931 97.3281 24.0356 97.3392 24.0797C97.4688 24.5846 97.7336 25.0449 98.1051 25.4116C98.6442 25.9498 99.3722 26.2577 100.135 26.2704C100.898 26.283 101.636 25.9993 102.192 25.4793C102.579 25.114 102.955 24.7362 103.333 24.3583L103.601 24.0718Z" fill="#FFC107"/>
<path d="M101.419 19.8698C101.675 19.6926 101.977 19.5928 102.288 19.5825C102.6 19.5722 102.908 19.6517 103.175 19.8116C103.227 19.8498 103.273 19.8943 103.314 19.9438C103.576 20.2395 103.895 20.4796 104.251 20.6497C104.608 20.8199 104.996 20.9167 105.391 20.9343C105.786 20.952 106.181 20.8901 106.551 20.7524C106.922 20.6146 107.261 20.4039 107.548 20.1327C108.316 19.398 109.07 18.6455 109.811 17.8751C110.351 17.3129 110.645 16.5599 110.628 15.7818C110.611 15.0037 110.284 14.2642 109.72 13.7259C109.157 13.1877 108.401 12.8949 107.621 12.9119C106.84 12.9289 106.098 13.2542 105.558 13.8165C105.02 14.3549 104.483 14.8933 103.939 15.427C103.914 15.4551 103.882 15.4776 103.847 15.493C103.812 15.5084 103.774 15.5165 103.736 15.5168C103.122 15.3759 102.49 15.3286 101.861 15.3766C101.899 15.3171 101.941 15.2598 101.986 15.205C102.491 14.6855 102.992 14.1597 103.507 13.648C103.962 13.16 104.447 12.7009 104.96 12.2736C107.645 10.2049 111.64 11.8202 112.134 15.1688C112.253 15.8646 112.202 16.5787 111.985 17.2505C111.767 17.9223 111.391 18.5319 110.887 19.0275C110.162 19.7754 109.421 20.509 108.676 21.2316C108.162 21.7274 107.537 22.0945 106.853 22.3029C106.169 22.5114 105.445 22.5552 104.741 22.4307C104.036 22.3063 103.372 22.0171 102.801 21.587C102.23 21.1569 101.77 20.5981 101.458 19.9564C101.443 19.9344 101.433 19.906 101.419 19.8698Z" fill="black"/>
</g>
<defs>
<clipPath id="clip0_238_465">
<rect width="241" height="54" fill="white"/>
</clipPath>
</defs>
</svg>
