<svg width="24" height="24" viewBox="0 0 24 24" fill="none" xmlns="http://www.w3.org/2000/svg">
<path d="M18 19.1999C18 19.8626 17.4627 20.3999 16.8 20.3999L1.2 20.3999C0.537281 20.3999 0 19.8626 0 19.1999C0 18.5372 0.537281 17.9999 1.2 17.9999L16.8 17.9999C17.4627 17.9999 18 18.5372 18 19.1999ZM1.2 13.1999L22.8 13.1999C23.4627 13.1999 24 12.6626 24 11.9999C24 11.3372 23.4627 10.7999 22.8 10.7999L1.2 10.7999C0.537281 10.7999 0 11.3372 0 11.9999C0 12.6626 0.537281 13.1999 1.2 13.1999ZM1.2 5.9999L12 5.9999C12.6627 5.9999 13.2 5.46262 13.2 4.7999C13.2 4.13723 12.6627 3.5999 12 3.5999L1.2 3.5999C0.537281 3.5999 0 4.13723 0 4.7999C0 5.46262 0.537281 5.9999 1.2 5.9999Z" fill="black"/>
</svg>
